ply
format ascii 1.0
comment mixture 1.0
comment gms exported Gaussian mixture ply file
comment (c) Reinhold Preiner
element component 251
property float x
property float y
property float z
property float covxx
property float covxy
property float covxz
property float covyy
property float covyz
property float covzz
property float weight
property float nvx
property float nvy
property float nvz
end_header
-17.1633  -10.3603  6.59741  0.171887  -0.0475429  0.081495  0.0134171  -0.0227475  0.0420125  3.56009  -0.0658687  -0.326211  -0.133778  
-27.8775  39.6404  19.2518  0.0310224  0.0112825  0.0292193  0.0825946  0.0707059  0.15341  4.32208  -0.301328  0.204064  -0.098479  
-15.6512  -10.9185  25.2671  145.367  -126.841  13.8411  520.664  -56.384  6.79003  5928.95  0.00632569  -0.0311395  -0.31032  
-16.4058  39.5894  -25.1331  0.00501197  0.0152564  -0.0122173  0.0473833  -0.0376438  0.215605  3.19983  -0.00100491  0.000318616  -4.14554e-006  
6.07827  -1.16147  -2.30096  239.002  -3.40172  0.605538  6.25033  -1.07943  0.19051  505.002  -0.000380859  0.0102183  0.0619674  
29.2459  13.8828  -3.06583  8.1e-005  0  0  8.1e-005  0  8.1e-005  0.999999  0.001  0  0  
-18.3834  8.90319  -3.59441  0.0937587  0.14546  0.0514596  0.758514  -0.00655224  0.131061  7.81146  -0.358967  -0.0102565  0.147612  
32.2168  -8.78131  -21.4585  0.00793138  0.0165296  0.0263783  0.0351711  0.053327  0.0938851  0.616196  -0.000948691  0.000301975  9.50516e-005  
-14.4358  -4.73675  -28.6527  0.0157209  -0.0138076  0  0.0123734  0  4.05e-005  0.901445  0  0  0.001  
-16.9288  34.5499  -32.6219  0.0970134  1.35383  0.593375  20.1154  8.99076  127.451  335.454  0.0647503  -0.00603796  -0.000816816  
-19.1347  -8.94256  -31.3871  0.0114549  -0.016451  0.0119335  0.0241059  -0.0173115  0.0126846  0.978169  0.000757158  5.0162e-005  -0.000650021  
12.9878  41.9548  -2.49819  0.16658  -0.00654939  0.0484326  0.000394312  -0.00315679  0.0342148  2.12773  -0.00029709  -0.0285451  -0.00695601  
23.2261  39.5499  0.413155  0.135263  0.00917686  -0.00488062  0.110997  -0.0698406  0.0448367  4.03038  -0.0287891  0.0675225  0.135527  
-12.8527  39.5559  0.369139  0.950386  -0.404402  0.240927  0.389889  -0.2348  0.147758  13.0997  -0.0220064  0.114853  0.230856  
-16.7635  -10.4719  7.80073  8.1e-005  0  0  8.1e-005  0  8.1e-005  0.999999  0.001  0  0  
-16.4629  39.4136  7.45045  0.0122134  0.0372104  -0.0414935  0.11567  -0.127905  0.312141  3.99905  -0.0180645  0.003575  -0.00151138  
-3.98974  -44.3609  28.5678  27.9603  1.48606  -0.630732  0.451925  -0.159244  0.38358  64.8716  0.0140383  0.541014  0.415596  
-1.96705  -32.8184  26.8046  8.1e-005  0  0  8.1e-005  0  8.1e-005  0.999999  0.001  0  0  
15.7376  41.9976  -8.82202  8.1e-005  0  0  8.1e-005  0  8.1e-005  0.999999  0.001  0  0  
32.0701  -9.0623  -23.1841  0.0216718  0.0228401  0.00574234  0.0245602  0.00611372  0.00156489  0.977399  0.000130851  0.000123385  -0.000983815  
-18.4869  -9.67348  7.67085  0.00724979  -0.00763727  0.0010107  0.00820882  -0.00107583  0.000182194  1.54515  6.98975e-005  -6.57434e-005  -0.000995385  
-10.4284  8.85965  -3.26511  0.0112657  -0.0287575  0.00154772  0.0748985  -0.00400978  0.000234977  1.19007  3.83916e-005  -3.8739e-005  -0.00099875  
27.9792  41.3848  -30.4215  0.196812  -0.108375  0.0789924  0.0670593  -0.0416937  0.0864566  0.970531  -0.000695139  -0.00116903  8.17332e-005  
31.178  14.5369  -25.011  1.01793  -16.3219  0.434654  268.025  -8.14312  203.004  1076.99  0.105465  0.00542186  0.00258096  
-12.5803  6.0052  -3.11212  11.7164  -0.311298  0.0169867  3.03351  -0.160947  0.00871263  81.7162  0.000263406  -0.00287147  -0.0568085  
24.4968  41.9976  -24.0567  0.671988  -2.38727e-006  -0.327787  3.56544e-005  4.53512e-007  0.975797  10.4792  0.0519877  0.387585  -0.0444696  
-17.6636  -10.1181  21.2724  0.466669  -0.223194  0.15516  0.117337  -0.023667  1.67762  18.0269  -0.0883474  -0.170864  0.000536507  
-29.2739  12.8696  21.8413  0.105064  0.082995  -0.0090098  0.104014  -0.0112708  0.00125081  1.25774  1.40326e-007  -0.000117715  -0.00108922  
32.1238  -8.80014  -45.7096  0.0706457  0.122508  -0.110243  0.23439  -0.193825  0.392324  5.4872  0.0727136  -0.0295525  -0.00211381  
-29.2611  39.3089  19.8279  0.0799543  0.0270811  -0.0264297  0.0166511  0.0276311  0.268853  3.9951  0.0988442  -0.12731  0.0134524  
26.674  41.8767  10.7843  0.123564  -0.0314487  -0.0296095  0.00816666  0.00760363  0.110342  4.32834  0.00381656  0.0144444  -2.11341e-005  
-16.4508  39.4509  29.9779  0.0105718  0.0322109  0.0141833  0.100135  0.0436513  0.0194151  2.87793  0.000879538  -7.78423e-005  -0.000470687  
29.5445  39.1903  20.9309  8.1e-005  0  0  8.1e-005  0  8.1e-005  0.999999  0.001  0  0  
-32.1357  20.5536  21.0512  0.186965  0.127674  -0.0334014  0.125908  -0.0380132  0.0151754  3.18963  -0.000934168  0.00596829  0.0151504  
-14.5118  41.6591  30.9034  8.1e-005  0  0  8.1e-005  0  8.1e-005  0.999999  0.001  0  0  
32.1843  -8.94077  -37.0623  8.1e-005  0  0  8.1e-005  0  8.1e-005  0.999999  0.001  0  0  
-1.44022  -5.98191  24.7637  0.0516413  -0.017645  -0.0371895  0.0186938  -0.0142715  0.268395  3.98374  0.139477  0.278625  0.00523392  
-18.2026  14.2995  -4.5118  0.740664  11.7121  1.11289  188.964  17.5277  4.57175  271.449  0.0667386  -0.00364665  -0.00157238  
-14.4885  -10.5494  -18.604  1.86233  -0.000531354  7.99156  2.93307e-005  -0.000361994  133.474  140.555  0.00125755  0.0909817  -0.000420034  
-16.229  40.1344  -40.3107  0.000637245  0.00183876  0.000222204  0.00570631  0.000684681  0.00012324  1.24556  0.00253972  -8.32368e-005  -0.0061318  
-10.9463  39.9576  0.153156  8.1e-005  0  0  8.1e-005  0  8.1e-005  0.999999  0.001  0  0  
-20.3287  17.7195  21.3144  0.0106984  -0.00484771  0.000526437  0.00224546  -0.000239448  6.65028e-005  1.46931  -0.00041874  -0.00091349  6.56482e-005  
8.06721  41.9068  -2.79732  4.88204  0.107829  -0.849868  0.0230289  -0.0938814  0.580469  28.0606  -0.00161648  0.0422204  0.0065896  
-19.9066  26.3671  20.375  8.1e-005  0  0  8.1e-005  0  8.1e-005  0.999999  0.001  0  0  
-16.534  39.1944  -38.0831  8.1e-005  0  0  8.1e-005  0  8.1e-005  0.999999  0.001  0  0  
29.854  36.2356  -5.9498  8.1e-005  0  0  8.1e-005  0  8.1e-005  0.999999  0.001  0  0  
4.82738  -44.4364  28.2284  0.193301  0.0565978  -0.00233543  0.0214101  -0.00701423  0.0103803  3.94509  0.0309814  -0.133031  -0.147194  
-2.72071  -6.0291  24.0218  0.0634601  -0.0461524  -0.0268159  0.0342466  0.0196993  0.0115615  0.999819  0.000167712  -0.000312722  0.000934156  
-14.9348  41.4981  -13.7448  0.0159048  0.0132903  0.0377409  0.011331  0.0340216  0.195616  0.991796  -0.000619615  0.000784875  -1.69699e-005  
-14.7388  41.3985  7.58546  0.687461  0.343171  -6.67391  0.198112  -3.30779  124.199  94.0113  -0.128786  0.217724  0.0094332  
2.09071  -7.06029  24.4882  0.000362611  -0.000469605  -0.00303622  0.000732283  0.00469203  0.0315786  1.92089  0.000382597  0.00091864  -9.97931e-005  
-14.9743  -10.5497  -44.3502  0.0248781  0  -0.0893281  3.43735e-005  0  0.327257  1.83087  0  0.001  0  
-17.4364  29.561  20.6865  0.000309378  0.00277469  -0.0048819  0.0271779  -0.0454572  0.101356  1.4555  -0.000996477  8.61572e-005  -9.35741e-006  
-7.93007  41.143  -1.0178  0.046741  -0.0293269  0.0344184  0.0187743  -0.0218134  0.025859  1.99852  -0.000129624  -0.000834847  -0.000536117  
-17.6583  25.9249  20.8495  2.65805e-005  0.000145418  0.000510856  0.00937142  0.0395014  0.200166  2.24168  -0.00099988  2.87388e-005  -3.11979e-006  
-5.78899  -37.7383  27.3392  0.128195  0.0670291  -0.00728371  0.979781  -0.105535  0.0115982  6.72886  0.136791  -0.0396334  -0.421247  
-15.5107  40.9507  -31.5261  0.193852  0.179891  0.60023  0.172541  0.61852  120.494  66.7934  -0.0826829  0.0876938  -0.0030453  
-19.1179  -9.0624  24.0111  0.059338  -0.0754453  -0.00501986  0.0987856  -0.00955125  0.0914886  0.999994  0.000785098  0.000610094  0.000106802  
-6.29144  39.2823  0.585248  8.1e-005  0  0  8.1e-005  0  8.1e-005  0.999999  0.001  0  0  
-4.09567  -32.9684  26.821  8.1e-005  0  0  8.1e-005  0  8.1e-005  0.999999  0.001  0  0  
0.562768  41.9733  -3.29252  1.21473  -0.0269423  0.613386  0.0024568  -0.0252799  0.679612  16.7408  0.0268434  0.317898  0.00668483  
29.7799  37.4224  -0.601007  0.000246505  -0.00351448  -0.00289828  0.056297  0.0459699  0.0382993  0.999182  0.000998908  3.15353e-005  3.77663e-005  
-15.5496  40.937  10.3485  8.1e-005  0  0  8.1e-005  0  8.1e-005  0.999999  0.001  0  0  
-19.3638  -8.21307  -19.3471  8.1e-005  0  0  8.1e-005  0  8.1e-005  0.999999  0.001  0  0  
31.7047  -9.42519  -20.1053  0.126412  0.136374  -0.0188102  0.153007  0.0128699  3.56516  18.732  -0.122953  0.111948  0.0139984  
29.6975  -10.4771  -12.23  0.084912  0.0173126  -0.0803715  0.0037227  -0.014089  0.112878  2.8747  -0.03523  0.347072  -0.157633  
-0.910869  39.4753  0.461769  8.1e-005  0  0  8.1e-005  0  8.1e-005  0.999999  0.001  0  0  
-19.5446  -7.36384  14.8178  8.1e-005  0  0  8.1e-005  0  8.1e-005  0.999999  0.001  0  0  
6.78365  -43.333  28.1052  0.0484221  0.049617  -0.0167249  0.0681613  -0.0385806  0.099222  2.82148  -0.0624752  0.0732342  0.0598233  
-17.5823  27.8759  20.7343  0.000632596  0.00731582  0.00194801  0.0890775  0.0328799  0.0945478  2.88213  0.000996815  -8.511e-005  8.40602e-006  
25.4394  35.8447  1.24944  0.024929  0.0133124  0.000600419  0.0428594  0.00238625  0.0001579  2.98398  -6.78737e-006  5.77294e-005  -0.000998428  
-18.2303  -9.50851  -0.301838  0.988036  -0.743729  -1.36681  0.759923  1.46446  63.143  174.814  -0.2877  -0.301689  0.048298  
-14.9835  -4.70082  -28.6527  0.178581  0.0315396  0  0.00568337  0  4.05e-005  0.999999  0  0  0.001  
14.0935  -10.5497  -0.449271  8.1e-005  0  0  8.1e-005  0  8.1e-005  0.999999  0.001  0  0  
23.9669  -10.5497  -6.09175  0.0283422  -2.17421e-008  0.0127785  1.97788e-005  1.92361e-007  0.170464  4.76021  0  0.001  0  
25.622  41.9976  -45.1685  8.1e-005  0  0  8.1e-005  0  8.1e-005  0.999999  0.001  0  0  
28.7916  40.7182  -40.7236  0.000165384  -0.000117339  -0.00219134  0.000150749  0.00205894  0.0384921  1.91009  -0.000998737  0  -5.69178e-005  
16.8022  -10.5497  -5.61467  0.0840061  -3.81909e-011  0.0233441  2.7e-005  5.23059e-012  0.0517212  2.98224  0  -0.001  0  
-23.6877  -16.2257  25.0021  8.1e-005  0  0  8.1e-005  0  8.1e-005  0.999999  0.001  0  0  
15.482  30.6714  -28.6527  0.00435893  0.00739934  -9.70617e-012  0.0561838  -1.66664e-010  2.02486e-005  1.33918  2.14249e-014  1.54065e-013  -0.00100036  
-13.4041  -10.4201  -0.418922  1.4  0.0354369  -0.0387257  0.0639605  0.0293257  0.0938773  11.1512  -0.0392748  -0.321148  0.136977  
-18.7867  -9.30061  -48.4345  0.167761  -0.202312  -0.117369  0.25282  0.133749  0.434355  6.24413  0.0180156  0.0148835  -0.000472486  
-5.25837  -10.4266  -0.404963  3.19782  0.104626  0.10364  0.0362697  0.0333219  0.11724  12.4022  0.273116  -0.506937  0.291321  
-26.0104  40.028  19.3771  0.0333863  -0.00618403  -0.0569271  0.00121086  0.0109435  0.100913  1.59511  7.31141e-006  0.000994576  -0.000103757  
-7.87317  43.183  35.6763  19.4514  4.33389  12.9933  0.985224  2.92883  129.531  399.021  0.038036  -0.13623  -0.00240396  
29.089  -10.5497  -49.7306  0.0482709  0  0.0430403  2.7e-005  0  0.0407774  2.17268  0  -0.001  0  
4.88728  14.1009  -28.6527  236.221  -5.45163  -0.00016281  175.187  -0.00011377  2.3741e-005  1586.15  -3.80217e-005  0.000140152  0.0912538  
17.6635  -10.5497  -6.25564  8.1e-005  0  0  8.1e-005  0  8.1e-005  0.999999  0.001  0  0  
19.7653  -10.5497  -3.53772  12.142  2.52129e-006  0.0647045  2.64839e-005  -1.04031e-006  1.89492  71.0269  0.0102212  -0.151818  0.00228584  
-19.5108  -6.41674  -11.2961  8.1e-005  0  0  8.1e-005  0  8.1e-005  0.999999  0.001  0  0  
12.145  41.9976  -8.6804  8.1e-005  0  0  8.1e-005  0  8.1e-005  0.999999  0.001  0  0  
30.0367  -9.91881  -1.85746  3.38106  0.934192  -1.35255  0.42787  -0.377769  2.10288  47.3717  0.178827  -0.372942  0.0630976  
-19.3661  -8.05476  -15.1137  0.0221868  -0.0900081  -0.114683  0.447861  0.612539  2.5958  13.6922  0.166699  0.0318203  0.0266942  
-5.4444  38.9763  0.681533  0.00241654  0.0185621  -0.0070373  0.145475  -0.0546013  0.0209097  0.999997  0.000982076  -5.80128e-005  0.000179336  
17.612  30.0399  -28.6527  0.0988577  0.00510421  0  0.000304149  0  4.05e-005  0.999601  0  0  0.001  
-32.3539  -16.5162  25.1231  0.0769362  0.00251291  -0.019892  0.0798587  -0.0389443  0.0235602  1.99984  -0.000213942  -0.000422842  -0.000880587  
-19.5059  -8.693  23.971  0.156833  -0.116952  -0.0830704  0.0894349  0.0700795  0.0742872  0.999856  -0.000503628  -0.00083437  0.000224019  
6.41009  24.0548  -1.23631  194.636  3.87323  0.623737  70.3414  13.3205  2.65432  1777.22  -0.000651481  -0.0185601  0.143822  
29.9519  -10.4078  -8.5612  0.22421  0.0502499  -0.344373  0.01208  -0.0846481  1.28453  9.20483  0.00119706  -0.00608554  -0.000241025  
-11.8489  41.9942  -24.6011  0.916547  0.00541279  4.53168  0.000246876  0.0250483  138.608  138.503  0.00614733  -0.130267  -0.000741191  
-19.318  -8.34232  16.0621  0.0166579  -0.0522593  -0.0487944  0.179986  0.183214  0.319564  5.14677  -0.0162931  -0.00504492  -0.000122418  
-7.3453  41.8008  -2.08087  2.46397  -0.0763418  0.179989  0.0151301  -0.0363783  0.0893111  6.9812  -0.19156  -0.405565  -0.115364  
25.8905  41.9682  -37.3084  0.29047  -0.0250609  0.0457286  0.00323028  -0.00927769  0.1145  2.69195  -0.000262032  -0.00376442  -0.000108464  
28.0264  41.374  -22.5696  0.102412  -0.0752749  -0.0466768  0.0564518  0.0346548  0.021706  0.999998  0.000173652  -0.0003381  0.000925208  
24.7545  42.3219  37.6251  0.0528702  -0.0117575  -0.0266207  0.00266779  0.00596082  0.0831107  1.92004  0.00021677  0.000978542  -1.2769e-006  
27.0102  41.7903  -17.8105  0.349057  -0.0887929  0.192914  0.0230457  -0.0495418  0.108992  0.999998  -0.000129702  -0.00096886  -0.000211488  
28.2853  40.5501  -3.82309  1.41117  -0.907931  3.13391  1.39243  -1.06167  672.614  615.333  -0.279861  -0.286084  -0.0381785  
-24.1468  27.7074  20.2294  8.1e-005  0  0  8.1e-005  0  8.1e-005  0.999999  0.001  0  0  
-19.518  24.8223  22.1946  8.1e-005  0  0  8.1e-005  0  8.1e-005  0.999999  0.001  0  0  
20.5329  43.2657  20.245  16.9498  -3.76708  0.12858  0.854233  -0.0290975  4.25047  110.833  -0.0378104  -0.13576  -0.0025339  
-14.0173  41.7733  -30.6564  0.374933  0.0884627  2.36173  0.022105  0.547185  84.8272  55.6662  0.0345073  -0.133286  -0.00286051  
29.5102  39.2959  24.5408  8.1e-005  0  0  8.1e-005  0  8.1e-005  0.999999  0.001  0  0  
-12.4986  -6.52212  23.948  8.1e-005  0  0  8.1e-005  0  8.1e-005  0.999999  0.001  0  0  
6.3296  44.9137  36.152  13.5767  -0.000318565  -0.74433  3.60534e-005  0.0024455  125.631  318.227  -0.00551562  0.153592  -0.00184436  
28.1835  4.81648  -3.0478  4.9522  -1.2448  0.0665585  3.22108  -0.169518  0.00910244  16.5632  -0.000217127  0.000994626  0.0187387  
24.8729  41.9975  -26.2257  0.529423  -0.000116355  -1.46393  3.22919e-005  0.000881468  85.527  67.1384  0.00827171  0.283698  -0.00536239  
13.2941  -7.73559  -0.823174  108.34  0.230403  -0.112001  2.69153  -0.729854  0.204595  218.447  -0.00175624  -0.0455794  -0.226512  
0.0966931  44.8876  22.2324  0.237622  0.0173131  -0.0895411  0.00163814  -0.00774417  0.0493993  2.4888  0.000132648  -0.00315524  -5.42526e-005  
-18.3172  7.14759  -29.0367  0.153589  -0.0532934  0.128699  0.908013  -0.0630006  0.165394  6.14809  -0.493202  -0.122444  0.392764  
-7.63147  0.165172  -28.6527  8.1e-005  0  0  8.1e-005  0  8.1e-005  0.999999  0.001  0  0  
24.612  41.9976  -46.0437  8.1e-005  0  0  8.1e-005  0  8.1e-005  0.999999  0.001  0  0  
27.8744  -10.549  -13.3322  1.10328  0.00121379  -2.19135  4.01435e-005  -0.00152919  25.8354  75.9449  0.00278575  -0.134894  0.00385206  
28.7122  -10.525  -33.3993  0.8259  0.0385851  0.110174  0.00481246  -0.00846328  4.5427  25.5954  0.00878257  -0.086154  -0.000451603  
-6.02259  -6.04475  23.8962  0.139007  0.0863722  -0.00947868  0.0547571  -0.00594775  0.000687025  0.999999  3.42565e-005  5.43979e-005  0.000997932  
28.4843  24.135  -28.6956  3.59221  -5.30165  -0.105929  27.3653  0.235175  0.034084  88.3605  -0.0112423  -0.00290071  -0.189494  
-17.971  -10.0457  15.8784  0.148662  -0.0927942  -0.0433306  0.064809  0.0223231  0.02672  3.64493  -0.120404  -0.299097  0.073369  
-15.9236  40.3401  37.1764  0.278623  0.382513  0.836022  0.568385  1.47523  56.8384  101.096  -0.176229  0.110204  -0.00893288  
17.5068  -10.4988  -0.589658  0.0753212  0.0192121  0.109925  0.00520619  0.0269992  0.164487  0.963995  -0.000526553  0.000821979  0.000217006  
-19.3542  -8.25814  21.7376  0.0048661  -0.022591  -0.00933062  0.107009  0.0438264  0.0476687  3.80382  0.000982687  0.000206698  1.77906e-006  
-2.83908  -36.511  27.2058  8.1e-005  0  0  8.1e-005  0  8.1e-005  0.999999  0.001  0  0  
-1.51508  44.6126  19.3258  8.1e-005  0  0  8.1e-005  0  8.1e-005  0.999999  0.001  0  0  
-16.5836  -10.5221  15.1027  8.1e-005  0  0  8.1e-005  0  8.1e-005  0.999999  0.001  0  0  
-17.6116  -35.5885  27.1057  8.1e-005  0  0  8.1e-005  0  8.1e-005  0.999999  0.001  0  0  
-30.5181  -12.124  24.5565  8.1e-005  0  0  8.1e-005  0  8.1e-005  0.999999  0.001  0  0  
-19.2603  -8.56257  13.5249  0.0165371  -0.0487732  -0.0242516  0.159478  0.0622586  0.0484857  1.54112  0.00628936  0.0012806  0.00136662  
-7.58568  40.3729  -0.117928  0.008881  -0.00169383  0.00158555  0.000365037  -0.00030379  0.000324869  1.35688  -0.0190059  -0.0240862  0.0802423  
-6.19087  43.5656  17.1734  8.1e-005  0  0  8.1e-005  0  8.1e-005  0.999999  0.001  0  0  
-8.5222  -9.02224  -0.449332  1.78949  0.872634  -0.247669  1.05067  -0.295254  0.0846556  11.8364  0.000208083  -0.00188095  -0.00694887  
-18.9608  -3.18838  -28.9282  0.17638  0.0392052  0.0997911  0.466183  0.0618594  0.0952793  4.07038  0.101318  -0.00987306  -0.131322  
-17.7815  15.0087  -28.8603  0.146391  -0.0235552  0.0777088  0.0629587  -0.0489137  0.0939318  1.97707  -0.40336  -0.0615289  0.337791  
-32.5276  -17.7653  25.4654  0.00212098  -0.00294003  -0.0131851  0.0041952  0.0185435  0.0836296  0.999172  -0.000945545  -0.000315733  -7.91013e-005  
-1.17969  44.6877  18.1298  8.1e-005  0  0  8.1e-005  0  8.1e-005  0.999999  0.001  0  0  
31.4686  -6.24363  -28.6527  8.1e-005  0  0  8.1e-005  0  8.1e-005  0.999999  0.001  0  0  
-19.5145  -6.47594  -18.6699  8.1e-005  0  0  8.1e-005  0  8.1e-005  0.999999  0.001  0  0  
31.6712  -9.48707  -11.6161  0.0707786  0.0746009  0.0243567  0.0802261  0.0259314  0.00855194  0.999996  0.000170465  0.000156308  -0.000973255  
15.5709  -10.3975  -0.692317  0.064827  -0.0110042  0.00144369  0.096067  0.0690025  0.123587  3.76084  0.285762  0.443199  -0.0807162  
3.58095  41.9976  -4.5907  8.1e-005  0  0  8.1e-005  0  8.1e-005  0.999999  0.001  0  0  
-19.3942  -8.07039  18.5543  0.00861866  -0.040022  0.0148208  0.189622  -0.0696143  0.200097  5.8238  -0.000987549  -0.000207823  6.32715e-007  
4.96197  41.9975  -5.84523  113.842  0.000461741  1.22891  2.49618e-005  -0.000310878  3.0789  249.061  -0.00284157  0.117933  0.00159301  
-8.36047  39.0251  0.602278  0.233921  -0.312546  0.141661  0.535913  -0.240817  0.11461  7.53663  0.0163281  -0.0374598  -0.140196  
27.0867  -10.5497  -29.987  8.1e-005  0  0  8.1e-005  0  8.1e-005  0.999999  0.001  0  0  
27.5938  -10.5497  -25.8147  0.324641  -2.00777e-008  -0.148392  2.48715e-005  3.84378e-008  2.8318  17.5715  0  -0.00100004  0  
-13.6787  38.0363  0.921758  8.1e-005  0  0  8.1e-005  0  8.1e-005  0.999999  0.001  0  0  
-17.2697  -10.3199  -20.4296  0.299644  -0.0813502  -0.0470263  0.0231789  -0.00645993  8.14555  19.5857  0.178  0.410553  0.100552  
-3.12637  40.1847  0.00780411  0.0102126  -0.00406899  0.00260384  0.00166816  -0.00104158  0.000707028  1.45618  -0.0098476  0.0147607  0.0615368  
-5.55466  40.5763  -0.352484  0.093724  0.00981  -0.0115167  0.00473382  -0.00549745  0.0065139  2.68316  8.24749e-008  -0.00076164  -0.0006481  
32.0479  -8.74276  -8.44478  0.167808  0.327323  0.289219  0.739876  0.556412  2.21459  24.0438  0.0658268  -0.0352354  0.000804221  
-19.0773  -9.04502  -19.9764  0.00132036  -0.00136233  0.0124781  0.0014906  -0.013282  0.121696  1.99989  0.00433617  0.0266741  0.00246745  
-16.3935  -10.4989  -48.6144  0.307855  -0.0291577  -0.088267  0.00428339  -0.00536807  0.657549  14.8392  -0.00140017  -0.00997942  6.44785e-006  
-17.3713  17.6634  -28.8228  0.333677  -0.00330689  0.111831  0.608415  0.0628651  0.110493  9.9011  -0.146311  0.0339656  0.349786  
30.726  -10.0714  -14.6194  0.631068  0.270102  0.35325  0.13419  0.134509  0.7616  11.8155  0.101577  -0.246945  0.0356993  
26.7444  41.8586  -49.9025  8.1e-005  0  0  8.1e-005  0  8.1e-005  0.999999  0.001  0  0  
32.2774  -8.47338  -10.9774  0.0275068  0.073738  0.049863  0.218998  0.138405  0.0936861  3.37099  0.116652  -0.029617  -0.0143613  
-4.38244  -6.53318  -1.15571  0.00532538  -0.00345512  0.000980799  0.00229937  -0.000641221  0.000222522  1.29608  -0.00401345  3.90517e-005  0.0217633  
-8.43117  -5.12969  24.1558  8.1e-005  0  0  8.1e-005  0  8.1e-005  0.999999  0.001  0  0  
-18.7962  -9.33488  -15.8073  0.0730633  -0.0813758  -0.00533471  0.0928076  0.00157071  0.0802307  2.96994  0.00140379  0.00127706  2.79667e-005  
-18.8111  4.36863  -35.0976  0.502263  8.15575  1.54403  135.122  26.6132  30.6707  448.381  0.0718055  -0.00307337  -0.000473607  
20.8562  43.1948  38.0178  1.72261  -0.381891  0.157677  0.0863816  -0.0353041  0.342603  13.0485  -0.0386938  -0.129889  0.00232813  
-31.439  -15.1415  24.8843  8.1e-005  0  0  8.1e-005  0  8.1e-005  0.999999  0.001  0  0  
-17.2481  -8.58002  24.1716  0.0312252  0.0302577  -0.0033177  0.0299155  -0.00324729  0.000393466  0.99225  5.32771e-005  5.44177e-005  0.000997096  
29.9827  34.1776  -1.61966  4.2217e-005  -2.72223e-005  0.000323169  0.000472094  -0.00512366  0.060866  0.992156  -0.000999747  0  5.31171e-006  
1.04213  -10.5497  -3.74574  61.8412  1.13816e-005  -2.09257  2.17374e-005  -5.59148e-007  2.55418  192.967  0.00181914  0.103091  0.0011566  
-15.9809  40.1782  -7.1213  0.339765  0.504066  0.235551  0.864307  0.827831  35.2538  92.432  0.274357  -0.165874  0.0111264  
-10.0927  -4.45773  24.356  0.0237528  -0.013022  -0.000822809  0.00728403  0.000461958  0.000119231  1.03964  -0.000124119  -0.000285606  0.000950276  
-19.5294  -6.71515  -19.9797  0.000210805  0.0027247  -2.52271e-005  0.0436329  -0.000403607  4.42369e-005  1.93894  0  -9.26048e-006  -0.0010002  
-0.976712  -8.91352  -0.480165  8.1e-005  0  0  8.1e-005  0  8.1e-005  0.999999  0.001  0  0  
31.4983  -9.65864  -28.1619  0.0721879  0.0696953  -0.0124359  0.0687687  -0.0158334  0.165752  3.02406  -0.00148899  0.00144916  1.17125e-005  
-3.4159  -6.17116  -28.6527  0.0013527  0.00273133  -4.54747e-013  0.00572571  0  4.05e-005  1.26961  0  0  -0.001  
30.5801  -10.2465  -6.0308  0.112834  0.0312434  0.0175523  0.00882688  0.00490928  0.00278585  1.99989  -5.47946e-005  -0.000331341  0.000941919  
31.6023  -9.56041  -30.1062  8.1e-005  0  0  8.1e-005  0  8.1e-005  0.999999  0.001  0  0  
-6.74333  41.0145  -0.866948  8.1e-005  0  0  8.1e-005  0  8.1e-005  0.999999  0.001  0  0  
-15.9207  40.5884  11.4853  8.1e-005  0  0  8.1e-005  0  8.1e-005  0.999999  0.001  0  0  
26.283  41.9771  9.22821  8.1e-005  0  0  8.1e-005  0  8.1e-005  0.999999  0.001  0  0  
-19.1373  -5.49111  -1.55907  0.125586  0.219796  -0.0401607  2.65472  -0.989733  0.42566  16.5693  0.546371  -0.324758  -0.371776  
-32.3692  -30.1977  27.1417  8.1e-005  0  0  8.1e-005  0  8.1e-005  0.999999  0.001  0  0  
20.7575  43.1926  42.1384  22.6961  -5.12789  -6.87832  1.1821  1.61945  26.9076  261.884  -0.0286204  -0.111076  0.00314888  
-19.2804  -8.52666  -22.1494  0.0087448  -0.0259029  0.0105929  0.0820221  -0.0470734  0.0633244  1.99434  0.0262595  0.00632825  0.000507306  
-18.6751  -9.43527  -31.2469  0.170304  -0.185647  0.643106  0.212292  -0.683426  29.7  37.5638  -0.0833892  -0.0689142  0.00382244  
-15.9885  40.2235  -34.89  0.334956  0.448519  -1.57441  0.682137  -2.46731  14.8085  30.4924  0.149437  -0.0834126  0.00514981  
-18.4507  -9.65716  -44.2541  0.192351  -0.19117  -0.362678  0.199451  0.425281  6.44513  25.7597  0.0781527  0.0913599  -0.00650053  
8.08694  -10.4152  -0.326436  0.137824  -0.0245969  -0.0896871  0.0243979  0.0297212  0.0722275  0.988081  0.000400374  -0.000588596  0.000765609  
11.7488  5.91362  -3.10574  119.617  0.249856  -0.0196535  4.07311  -0.219463  0.012065  274.597  -0.00233278  0.00405544  0.0698927  
4.74654  40.8763  -0.721487  39.9642  -0.476839  0.571532  0.149242  -0.170536  0.19944  39.8361  -0.00540773  -0.207334  -0.181931  
31.4787  -9.69196  -38.2027  8.1e-005  0  0  8.1e-005  0  8.1e-005  0.999999  0.001  0  0  
-27.748  -8.33438  24.1449  0.00285026  -0.011623  0.00126576  0.0483595  -0.00524899  0.000610709  1.96683  0.000210615  -5.53812e-005  -0.000976182  
-17.3937  24.7572  -29.2288  0.123083  0.608715  0.0908228  9.60983  -0.101841  0.269869  39.1539  0.4223  0.00713249  -0.177981  
7.73347  39.927  0.108833  8.32253  -0.161613  0.0858862  0.415814  -0.291513  0.215144  33.7493  -0.00613408  0.0597546  0.0895113  
-30.8467  2.11199  23.01  0.147673  0.232898  -0.0253351  0.416886  -0.0449738  0.00495029  4.62765  -7.82283e-005  -0.000231541  -0.00277462  
-18.8248  -9.50599  24.1658  0.0156492  -0.0295501  0.0278139  0.0569316  -0.0527838  0.0674376  1.80877  -0.412203  -0.16128  0.418164  
-4.32409  -7.55823  -0.864741  8.1e-005  0  0  8.1e-005  0  8.1e-005  0.999999  0.001  0  0  
30.105  -10.3439  -30.7605  0.492267  0.137073  0.602873  0.0442673  0.285352  66.0053  74.374  -0.0275972  0.102307  0.0030443  
18.8377  41.5768  -1.72152  16.4541  -0.10446  -0.0517791  0.113444  -0.193217  0.36097  42.6589  0.00869704  -0.123922  -0.058053  
-14.0199  -7.46717  -0.892406  5.32236  -1.49317  0.421281  2.6723  -0.740244  0.209215  44.3359  -0.00129997  0.0127684  0.0480564  
31.5854  -9.57841  -35.1203  0.0156779  0.0165238  0.00309196  0.0177689  0.00329198  0.105674  3.54222  -0.000729353  0.00068466  1.17246e-008  
9.78602  -10.3404  -0.348737  0.103047  -0.0718125  -0.0554388  0.0611151  0.0397727  0.0304313  1.97621  0.00472489  -0.002294  0.012449  
24.7577  41.9975  -48.961  0.00337983  -7.16464e-008  0.0213146  3.60244e-005  -5.09637e-007  0.156066  2.96772  0  0.00100008  0  
-17.0272  -10.3589  -34.5082  0.563431  -0.128836  -0.710389  0.034053  0.125316  25.6243  59.1397  -0.0375069  -0.149941  -0.000281532  
16.8995  40.0504  0.0384295  5.54578  -0.141613  0.156018  0.298594  -0.212639  0.157882  16.1412  -0.00874798  -0.1483  -0.26651  
-11.7327  34.2521  -28.6527  8.1e-005  0  0  8.1e-005  0  8.1e-005  0.999999  0.001  0  0  
30.6605  -10.2241  -37.9697  8.1e-005  0  0  8.1e-005  0  8.1e-005  0.999999  0.001  0  0  
19.6635  40.4129  -0.170305  0.114205  -0.0221348  0.019192  0.00452762  -0.00392665  0.00349798  0.933292  0.124848  -0.40408  -0.11221  
25.1864  33.048  -28.6527  8.1e-005  0  0  8.1e-005  0  8.1e-005  0.999999  0.001  0  0  
-18.7212  -9.4241  18.0224  0.0201407  -0.0212216  0.00485867  0.0228144  -0.00517174  0.00121495  1.94025  0.000119513  -0.000112644  -0.000986543  
-19.3544  -8.25733  22.9104  8.1e-005  0  0  8.1e-005  0  8.1e-005  0.999999  0.001  0  0  
28.2166  -10.5494  -40.3837  0.234351  0.000457596  0.228798  3.7863e-005  0.000453111  10.1612  24.4619  -0.00359833  0.0825244  -2.71799e-005  
21.4986  41.9976  -7.86175  5.20927  -2.31014e-006  0.184478  2.38848e-005  2.84198e-006  0.995787  33.8198  -7.99129e-005  -0.125318  0.00123458  
-16.3983  39.6026  13.8819  0.0227606  0.0662241  0.0380624  0.196598  0.115762  5.06806  22.2625  -0.0163769  0.00500537  0.000482061  
31.2531  -9.81816  -44.9896  0.271737  0.180438  0.522563  0.134844  0.374572  7.06876  31.1582  -0.0684694  0.0909688  0.00376705  
-0.856662  41.249  -1.14225  0.0413065  -0.023482  0.0275668  0.0169944  -0.0197484  0.0234147  2.28341  -3.19994e-006  -0.000766771  -0.000648393  
27.1885  35.7442  -28.6527  8.1e-005  0  0  8.1e-005  0  8.1e-005  0.999999  0.001  0  0  
-0.634825  40.3531  -0.140448  0.452768  0.0114688  -0.0162682  0.0560715  -0.0451645  0.0379613  6.01972  0.00247492  0.0253701  0.0320405  
31.5585  -0.0130272  -28.8922  0.575848  -0.589486  -0.14855  10.04  0.227361  0.130025  31.2086  0.283656  0.0569694  0.423328  
12.9051  -10.4372  -0.268976  0.0678007  0.0211032  0.0694276  0.00673756  0.0229773  0.0843894  2.537  -0.000201007  0.000974711  -0.000100054  
-18.8087  -0.134502  -28.7793  0.0591606  0.0144264  0.03887  0.0231884  -0.00504136  0.0399015  2.25462  -0.0707806  0.189173  0.120899  
-19.3324  17.8785  21.2971  8.1e-005  0  0  8.1e-005  0  8.1e-005  0.999999  0.001  0  0  
-2.43615  41.661  -1.87148  0.0997181  -0.0344723  0.110602  0.0447185  -0.111519  0.323319  4.80919  -6.5052e-005  0.0202547  0.0105078  
23.9774  41.9975  -11.7345  1.48185  -1.7397e-007  -0.406305  2.43399e-005  2.96166e-007  0.243589  8.7004  9.75957e-005  -0.0144315  1.71549e-009  
29.2026  -10.5497  -47.9535  8.1e-005  0  0  8.1e-005  0  8.1e-005  0.999999  0.001  0  0  
-18.7223  0.891499  -28.7011  0.145736  -0.128837  0.0142443  0.221222  -0.0291011  0.00439724  1.96797  -3.32094e-005  0.000508101  0.00437957  
32.1755  -8.81494  -13.9541  0.0160908  0.0339259  0.0146676  0.0729817  0.0312376  0.0136417  1.99939  0.000638569  3.23863e-005  -0.000769038  
31.856  -9.29025  -33.203  0.0244866  0.0258081  0.0181185  0.0277532  0.0192906  0.101663  2.98634  -0.000729212  0.000684462  8.44328e-008  
29.8311  36.6018  -1.69064  0.000784777  -0.0122923  -0.00113836  0.196915  0.0183277  0.854926  10.5864  0.000998374  6.23433e-005  -2.00367e-008  
31.5264  -9.59273  -31.5493  0.191011  0.201524  0.0880895  0.223928  0.100606  0.142049  2.72146  0.0217421  -0.0209433  0.00190072  
-18.5208  -9.6374  -17.7558  8.1e-005  0  0  8.1e-005  0  8.1e-005  0.999999  0.001  0  0  
-12.589  41.9613  -43.2507  0.687719  0.0597192  -0.456195  0.00842919  -0.0227138  1.4507  12.7672  -0.000212161  0.00603515  -5.6988e-005  
-9.83784  41.0398  -0.896575  0.143932  0.0681589  -0.0800158  0.0563965  -0.0655416  0.0777163  4.67622  2.70491e-005  -0.00137359  -0.00114358  
-1.32591  -41.4864  27.7463  0.00352022  -0.00997737  0.00108777  0.028853  -0.0031301  0.000380543  0.929458  0.000151418  -5.48101e-005  -0.000987191  
-25.9113  38.7373  20.683  8.1e-005  0  0  8.1e-005  0  8.1e-005  0.999999  0.001  0  0  
7.5177  -10.4136  -0.650186  0.300053  -0.0332629  -0.0226288  0.0357511  0.0709308  0.362798  8.58169  0.0623332  0.303582  -0.215526  
-19.2096  -8.71017  -23.6503  0.0280808  -0.0587479  -0.020128  0.154412  0.0267858  0.116355  4.40104  -0.0437971  -0.0180281  -0.00117211  
-17.6694  29.5214  20.1952  0.085066  0.0361256  0.0351013  0.164814  -0.000859335  0.0642614  4.21097  0.143774  -0.0593154  -0.200153  
0.820849  39.0775  0.657127  0.261087  0.0163614  -0.00201566  0.155854  -0.0682489  0.033265  7.8279  -0.000622179  0.0082155  0.0213585  
-11.5887  41.6833  -1.79694  8.1e-005  0  0  8.1e-005  0  8.1e-005  0.999999  0.001  0  0  
-25.7123  39.885  19.1687  0.141803  -0.0830129  -0.0673341  0.0499695  0.0333062  0.0624902  0.937952  -0.000555639  -0.000814966  -0.000164607  
23.2576  41.9976  -15.6767  8.1e-005  0  0  8.1e-005  0  8.1e-005  0.999999  0.001  0  0  
32.5409  -6.75579  -22.8447  8.1e-005  0  0  8.1e-005  0  8.1e-005  0.999999  0.001  0  0  
-18.141  -6.20488  -28.6527  8.1e-005  0  0  8.1e-005  0  8.1e-005  0.999999  0.001  0  0  
-1.66352  -6.36143  -1.20447  8.1e-005  0  0  8.1e-005  0  8.1e-005  0.999999  0.001  0  0  
-19.9445  19.7163  21.0975  8.1e-005  0  0  8.1e-005  0  8.1e-005  0.999999  0.001  0  0  
21.223  29.7598  -28.6527  8.1e-005  0  0  8.1e-005  0  8.1e-005  0.999999  0.001  0  0  
-13.6167  -3.99352  -28.6527  8.1e-005  0  0  8.1e-005  0  8.1e-005  0.999999  0.001  0  0  
