ply
format ascii 1.0
comment mixture 1.0
comment clop exported Gaussian mixture ply file
comment (c) Reinhold Preiner
element component 396
property float x
property float y
property float z
property float covxx
property float covxy
property float covxz
property float covyy
property float covyz
property float covzz
property float weight
end_header
7.29955  4.34395  -4.05976  1.32671e-06  -1.10354e-05  -4.1045e-05  0.00010507  0.000368391  0.00144475  2.66128  
7.2948  4.53824  -4.26804  3.71349e-07  -1.73341e-06  -1.15799e-05  0.000225478  -0.000455763  0.00180086  2.60051  
-8.02871  5.69061  -4.68585  1.71265e-05  0.000428094  -0.000110175  0.0111674  -0.00291746  0.000857558  3.52675  
-7.28565  4.74011  -4.24082  1.40302e-06  1.08399e-05  4.80779e-05  0.000253847  -2.19019e-06  0.0027584  4.33287  
7.17951  6.49885  -2.47827  2.00503e-07  9.79454e-07  -6.42863e-06  0.00024013  -0.000643921  0.00192815  3.52837  
-7.18638  6.27415  -2.32285  1.11139e-06  2.23681e-05  -8.20396e-07  0.000529957  -1.96952e-05  1.66201e-06  0.928209  
-7.3222  6.89742  -9.0699  0.00203891  0.0018931  -3.50424e-05  0.0017934  -3.28623e-05  2.99554e-06  1.85648  
-7.85242  5.85921  -3.0013  0.0115902  -0.00104079  0.00139928  0.00101014  0.00026723  0.00280872  1.39615  
8.7455  -11.9866  -22.3694  0.000170926  0.00017685  3.10859e-06  0.000202154  3.23246e-06  8.09946e-08  0.866618  
-7.20878  6.89297  -5.11207  7.91512e-07  -1.10719e-05  6.19664e-05  0.000161678  -0.000896976  0.00507739  22.487  
-7.18081  6.42069  -2.36355  1.17594e-06  3.51731e-05  -2.4821e-05  0.00115826  -0.0008319  0.000622515  1.73308  
-7.1098  6.66583  -4.409  0.0204159  -0.00488954  0.0110784  0.0190739  0.000956736  0.051214  9.37846  
7.2581  5.56134  -4.68135  5.43079e-06  -0.00011354  1.90684e-05  0.00286199  -0.00048208  8.52833e-05  0.92821  
7.7192  9.82139  -22.3712  1.81507e-05  3.43355e-05  3.44777e-07  0.000404437  8.97829e-07  3.12038e-08  1.73235  
-8.7518  -11.9245  -22.3692  0.000130991  0.000188354  -2.13209e-06  0.000352199  -3.00346e-06  5.92389e-08  2.16668  
7.20889  6.89434  -5.11981  4.71191e-07  6.3515e-06  -3.50918e-05  8.73547e-05  -0.000477805  0.00266652  21.7843  
6.9871  6.0727  -2.75868  1.58224e-06  -4.39145e-05  2.3799e-05  0.0013396  -0.000797757  0.000604273  2.16624  
7.07495  4.58965  -4.14595  3.57475e-06  -6.97861e-05  -2.87958e-05  0.00140807  0.000559013  0.000292706  1.73269  
0  0  0  2.99734e-07  0  0  2.99734e-07  0  2.99734e-07  0.999986  
7.25547  5.30633  -3.90144  2.00745e-05  -0.000434879  -6.42423e-05  0.00967714  0.00104898  0.00108628  5.58131  
-6.96954  6.30631  -2.32903  3.55062e-06  8.47043e-05  -1.18776e-05  0.00209813  -0.000304169  6.70908e-05  3.52728  
7.02118  5.67782  -3.74312  0.00950892  -0.000804557  -0.000467233  0.017957  0.0159105  0.016075  4.76271  
-7.78955  9.91492  -22.7145  0.00151404  0.00013682  -2.62508e-05  8.56019e-05  -2.32131e-06  5.40559e-07  1.23677  
-7.75143  8.85342  -18.8145  0.129645  -0.00453465  -0.00225954  0.0241535  9.69861e-05  5.1524e-05  3.6782  
-6.99085  5.86232  -2.45895  2.32602e-06  3.01723e-05  5.37263e-05  0.000412084  0.000718411  0.00131719  1.73312  
-8.78068  -12.1712  -22.7566  0.00600263  -0.00254881  -0.000106407  0.00130956  4.53661e-05  2.51442e-06  2.66062  
7.29193  4.45913  -3.90885  4.48981e-06  -8.53512e-05  -4.20317e-05  0.00166437  0.000808066  0.000427068  2.59891  
-7.29318  4.43626  -3.9249  6.39688e-06  0.000115662  7.66331e-05  0.00213481  0.00138151  0.000996055  4.33297  
-8.00493  5.79509  -3.5794  3.40048e-05  0.000468395  0.000744008  0.00675028  0.010261  0.0174307  3.46453  
-7.72079  9.81068  -22.3711  4.47223e-05  6.24101e-05  -7.37652e-07  0.000531934  -6.96123e-07  3.68967e-08  3.03176  
-7.66969  9.72439  -22.8459  0.0020491  0.00205818  -3.41308e-05  0.00278627  -3.37599e-05  7.62474e-07  3.4643  
7.30689  4.36184  -4.52678  4.72017e-07  -1.69753e-05  2.02165e-05  0.000850307  -0.00110786  0.00155613  3.038  
8.00815  5.75031  -3.6532  2.83111e-05  -0.000430469  -0.000515558  0.00680607  0.00802571  0.00991385  1.73231  
7.90916  -9.9642  -3.81745  3.54255e-05  -0.000744729  -0.000137949  0.0161139  0.00292495  0.000710742  3.52721  
8.658  -11.9694  -22.3709  0.0001086  -0.000176231  1.76296e-06  0.000468167  -2.71887e-06  5.30787e-08  3.03752  
-8.07004  -10.7711  -8.4505  0.00176607  -0.00191038  -3.26669e-05  0.00210845  3.56973e-05  3.02396e-06  1.85648  
-7.17946  6.49885  -2.47827  1.86013e-07  -8.87234e-07  5.82967e-06  0.000240127  -0.00064392  0.00192816  3.52836  
-7.24572  5.91478  -4.84083  1.33768e-05  0.000426361  -0.000312947  0.0148287  -0.0120326  0.011663  6.06344  
7.20852  5.84713  -2.54059  1.1721e-06  -6.89601e-06  -4.34659e-05  5.50497e-05  0.000262061  0.00186727  3.1269  
7.0762  4.7578  -4.63645  5.71499e-05  -0.00124919  -0.000147803  0.030124  -0.00237778  0.0143595  0.866051  
7.39  5.84274  -3.04465  0.0120488  -0.000169471  0.00319847  0.000421038  0.000127408  0.00193471  0.865976  
7.24408  5.99555  -4.94406  7.96684e-06  -0.000290597  0.000293629  0.0134257  -0.0163881  0.0234906  7.85818  
-7.08137  4.63456  -4.62835  0.00926002  0.00226723  0.000259049  0.0204402  -0.00360866  0.00100605  0.846588  
7.29067  4.58714  -4.14968  4.0607e-06  -7.57961e-05  -4.2955e-05  0.00146472  0.000785915  0.000557284  2.59857  
-8.68177  -9.89265  -3.79689  2.51911e-05  0.000534397  7.12119e-05  0.011829  0.00154432  0.000284844  2.66044  
-7.99311  5.87495  -3.09821  9.83004e-07  -7.04285e-06  7.09534e-05  5.31722e-05  -0.000530016  0.00539042  11.3863  
-8.65778  -11.9727  -22.3709  8.47784e-05  0.000150008  -1.36377e-06  0.000337687  -2.35934e-06  4.64407e-08  1.73285  
-8.01841  6.00339  -4.86459  3.75833e-06  0.000129498  -0.000134497  0.00535612  -0.0057315  0.0063843  2.59865  
-7.74488  9.77277  -22.3707  0.000395875  0.000227228  -6.72851e-06  0.000180648  -3.8233e-06  1.38875e-07  3.03153  
7.92177  -10.2204  -3.91282  3.37916e-05  -0.000604699  -0.00041009  0.0111127  0.00742843  0.00528335  2.59913  
-7.82209  9.81881  -22.3694  6.41573e-05  2.62694e-05  -1.09123e-06  0.000683045  4.60394e-08  4.34098e-08  4.33083  
7.30554  4.41573  -4.58005  1.41816e-06  -4.19603e-05  2.68201e-05  0.00134985  -0.000884583  0.000613725  1.73866  
7.09037  4.4065  -4.58344  1.56268e-06  -4.57357e-05  2.94292e-05  0.00143689  -0.000941704  0.000657308  2.59944  
-7.94374  6.618  -3.09359  0.00922617  0.00227007  0.0048631  0.00895451  -0.00918801  0.0367076  4.26309  
7.82401  9.80794  -22.3693  3.63396e-05  7.42303e-05  6.86158e-07  0.000446139  1.61626e-06  3.75946e-08  2.1686  
7.07783  4.53945  -4.19199  2.67093e-06  -3.69544e-05  -5.87135e-05  0.000556184  0.000786671  0.00146928  2.59958  
7.98585  5.99996  -2.98833  0.00112096  5.48986e-05  -0.000590158  0.0108097  0.00205891  0.0027731  1.42467  
-7.87302  9.70634  -22.8424  0.00278536  -0.0020581  -5.00581e-05  0.00204967  3.73592e-05  1.09349e-06  3.46431  
-8.02197  5.87691  -4.75775  7.9677e-06  0.00022945  -0.000139162  0.00712773  -0.00437013  0.00276931  1.73238  
8.0651  8.16951  -14.9081  0.00535126  0.00589955  9.75323e-05  0.00663608  0.000108641  1.67315e-05  0.928242  
7.9754  6.2443  -2.9894  4.31585e-05  -0.000990045  4.20131e-06  0.0231973  -9.84272e-05  1.31268e-06  3.46423  
7.20175  6.21703  -3.06155  4.37365e-05  -0.000997653  3.90505e-06  0.0232341  -9.09077e-05  1.25236e-06  3.46419  
6.98482  6.69268  -4.15551  0.0104413  0.00138317  -0.00703246  0.000945144  0.00119444  0.0278477  1.51999  
-8.75369  -10.7417  -8.4386  0.00209763  0.00191218  -3.56055e-05  0.00177852  -3.27821e-05  3.025e-06  1.85648  
-7.25552  5.62552  -4.69095  1.33109e-05  0.000321572  -6.90103e-05  0.00822728  -0.00178429  0.000430909  2.66039  
8.63279  -12.1711  -22.7161  0.00707129  -0.00243526  0.000121385  0.00116899  -4.15367e-05  2.56142e-06  1.65639  
7.20135  5.94767  -2.3757  3.72205e-06  -6.73399e-05  -4.09001e-05  0.00125305  0.000754691  0.000475819  1.73259  
7.22309  5.85836  -3.4021  1.40072e-05  -0.000140329  -0.000445914  0.00184424  0.00350997  0.0168502  7.27459  
-8.7137  -10.4385  -4.28483  1.00791e-05  8.18498e-05  0.000317884  0.000773412  0.0027921  0.011355  2.66055  
8.62065  -11.4788  -18.6374  0.128277  0.00448119  0.00223462  0.0239879  9.56419e-05  5.08651e-05  3.68638  
8.19895  -11.0578  -12.5268  0.0070544  0.00763616  0.000130661  0.00843373  0.000142881  1.2093e-05  1.85648  
8.36081  -11.2441  -4.3177  0.300162  0.00656688  0.00365531  0.150535  -0.00762317  0.109438  1.40949  
7.80597  9.85354  -22.3696  0.000399748  -0.000309288  6.7244e-06  0.00034716  -5.12414e-06  1.37575e-07  4.33552  
7.08761  4.48429  -4.6155  2.28106e-06  -5.55593e-05  1.39155e-05  0.00144062  -0.000368063  0.000105172  2.66093  
7.30687  4.32337  -4.42872  3.70165e-07  2.567e-06  -2.05359e-05  8.45939e-05  -0.000356999  0.00206524  3.52802  
-8.33361  -11.1674  -2.9475  0.300172  -0.0065647  -0.00365703  0.150535  -0.00762297  0.109437  1.85102  
-7.77683  6.61818  -3.00864  0.0174626  0.00124681  -0.00165812  0.000786404  -0.000120243  0.00016064  0.964759  
7.0706  4.6954  -4.1599  1.1053e-06  -3.21103e-05  2.16043e-05  0.00105588  -0.000764042  0.000647462  1.73244  
8.72313  -11.8565  -22.4128  0.00129743  -0.000189455  -1.94197e-05  0.000283498  -0.000216988  0.000256361  2.21285  
-7.18352  6.34385  -2.33005  3.43694e-06  8.63072e-05  -2.13816e-05  0.00224376  -0.000571863  0.000181488  3.46485  
7.76889  9.24012  -20.7646  0.101836  0.00306069  0.00177494  0.0305494  7.65111e-05  4.35826e-05  3.70045  
-8.7918  -11.0324  -12.5165  0.00839067  0.00765512  -0.000136095  0.00712586  -0.000125406  1.18972e-05  1.85648  
7.441  10.132  -22.7204  0.0144944  0.00618769  0.00328156  0.0132509  -0.00116822  0.039499  0.803201  
7.3222  6.89742  -9.0699  0.00203768  -0.00189253  3.50622e-05  0.0017934  -3.28908e-05  2.99581e-06  1.85648  
-6.97769  6.62695  -3.58513  9.21764e-06  -0.000138764  0.00081797  0.00231463  -0.013505  0.080397  9.71252  
-7.83352  9.89018  -22.4122  0.000879393  0.000526413  0.000127652  0.000693178  -0.000176153  0.000252794  2.16521  
7.07691  4.62582  -4.35  3.47868e-06  -7.89403e-05  1.38425e-06  0.00185822  -6.88339e-05  9.82106e-05  2.21614  
-7.24238  6.10137  -5.10804  8.46554e-07  -3.67358e-06  1.57938e-05  0.00103278  -0.00274355  0.00764056  2.66088  
-8.13448  -10.9145  -10.4887  0.00397365  -0.00430055  -7.12811e-05  0.00474884  7.79331e-05  6.72595e-06  1.85648  
6.96676  6.37983  -2.3488  1.96463e-06  -5.48148e-05  2.59084e-05  0.00162  -0.000781005  0.000408231  2.167  
-6.98139  6.20077  -2.74862  3.61273e-06  6.02649e-05  5.30979e-05  0.00104876  0.000873668  0.000892747  2.16643  
-8.56071  -11.6526  -22.717  0.00464229  -0.00206508  -8.23485e-05  0.00102669  3.67132e-05  1.78298e-06  2.60063  
-7.22745  5.80378  -3.52008  4.31221e-05  0.000550021  0.00110883  0.00751495  0.0130529  0.0314737  12.8722  
7.94375  6.618  -3.09358  0.00922846  -0.00227081  -0.00486433  0.00895418  -0.00918751  0.0367063  4.2633  
7.22412  6.5611  -3.09893  0.00904749  0.00288582  0.00354175  0.00929765  -0.00258503  0.00918135  6.12674  
6.97923  6.18263  -2.57905  1.8371e-06  -4.98537e-05  2.4395e-05  0.00146732  -0.000788691  0.000558808  2.59886  
7.9664  6.4555  -2.99025  0.0012281  -0.00265907  0.0001196  0.0157237  -0.000258629  1.23997e-05  0.866053  
-8.39898  -11.8503  -22.7199  0.000562488  -0.00160471  -1.09562e-05  0.00585659  3.22031e-05  5.83122e-07  3.52902  
7.61795  9.58814  -22.7347  0.0128311  -0.00401247  -0.00146874  0.00900728  -0.00218516  0.00150426  12.2844  
7.362  7.28645  -11.0197  0.00459429  -0.00426235  7.66762e-05  0.00403468  -7.1849e-05  6.66834e-06  1.85648  
8.0871  10.1597  -22.7091  0.0157833  -0.00593023  -0.00400767  0.0122115  -0.00169249  0.0392442  0.803108  
-7.99703  7.70103  -12.959  0.00684533  -0.00754406  -0.000124555  0.00848294  0.000138674  1.18392e-05  1.85648  
7.1981  6.01265  -2.35029  3.26747e-06  -6.60349e-05  -1.90297e-05  0.00139206  0.000395473  0.000123179  2.66041  
-7.20132  5.94767  -2.3757  3.67479e-06  6.68946e-05  4.0652e-05  0.00125303  0.000754689  0.000475823  1.73263  
-8.02958  5.33751  -3.86671  3.07473e-05  0.00064752  9.87046e-05  0.0142278  0.00212206  0.000439347  2.6604  
7.06542  5.01726  -4.65343  7.37767e-05  -0.00172173  0.000112715  0.0412508  -0.00268784  0.000178691  2.08217  
7.6449  9.75405  -22.8463  0.000669453  -0.00118505  1.07674e-05  0.00266954  -1.86681e-05  3.66928e-07  1.73238  
-7.97302  6.77612  -4.16303  3.2563e-05  -0.000387715  0.00264463  0.00515927  -0.0346726  0.237746  7.62759  
8.86515  -12.1269  -22.712  0.00483647  0.00394037  8.70593e-05  0.00382696  7.1415e-05  2.0449e-06  1.80143  
-7.77941  9.86519  -22.3701  0.000748666  9.36427e-05  -1.29487e-05  9.52759e-05  -1.55647e-06  2.48491e-07  4.76398  
7.03973  5.31883  -3.92186  0.0103628  -0.00230863  0.000563505  0.017206  0.0027327  0.000884983  3.09459  
8.78229  -11.8948  -22.4118  0.000754759  -0.00062393  -0.000163686  0.00110932  -0.000136593  0.000251621  2.98914  
7.99705  7.70103  -12.959  0.0068424  0.00754245  0.000124528  0.00848294  0.000138674  1.18373e-05  1.85648  
-7.29063  4.58714  -4.14968  4.15572e-06  7.66924e-05  4.35151e-05  0.00146472  0.000785913  0.000557279  2.59856  
-7.09137  4.31053  -4.40497  3.31503e-07  -9.00349e-07  1.2897e-05  1.14733e-05  -7.9439e-05  0.000935802  1.7949  
-7.23293  5.90387  -4.08045  4.65725e-07  1.43879e-05  -1.4281e-05  0.000647128  -0.00076381  0.00105547  1.73462  
7.75452  9.76846  -22.3706  0.000507724  -0.000170442  8.72211e-06  0.000103628  -2.89021e-06  1.74206e-07  3.47046  
-7.40171  7.67549  -12.9694  0.00815552  0.00757238  -0.000135938  0.0071737  -0.000127483  1.18387e-05  1.85648  
6.98581  5.94679  -2.37535  4.30443e-06  -7.97586e-05  -4.35345e-05  0.00151577  0.000816692  0.000472128  2.23118  
-8.68139  -11.9966  -22.3705  0.000377963  0.000186981  -6.42116e-06  0.00012493  -3.14531e-06  1.33578e-07  2.49831  
7.73085  9.68145  -22.8449  0.00401732  -0.00134832  6.89388e-05  0.00081951  -2.2861e-05  1.37664e-06  3.46542  
-9.0484  -12.2595  -22.7089  0.013486  -0.00519587  0.0152069  0.0188378  -0.00061365  0.0315473  0.815216  
-7.78139  9.91264  -22.4131  0.00113736  7.68736e-05  4.16741e-06  0.000235289  -0.000219779  0.000256954  1.7321  
-7.86513  9.84042  -22.4117  0.000325669  0.000267182  0.000209111  0.00124927  -5.78869e-05  0.000250299  2.16532  
7.29086  4.66175  -4.34413  4.03433e-06  -8.29977e-05  -1.91259e-05  0.0017663  0.000367666  0.000174473  2.16569  
8.68769  -11.901  -22.3703  0.000407391  0.000140108  7.20299e-06  7.41555e-05  2.49654e-06  1.51694e-07  2.17241  
6.96437  6.49411  -2.49529  1.88217e-07  1.47356e-06  -7.04144e-06  0.000124134  -0.000402501  0.00143748  2.66203  
6.9909  5.86232  -2.45895  2.32374e-06  -3.01797e-05  -5.36348e-05  0.000412088  0.000718412  0.00131719  1.73312  
6.98139  6.68817  -3.94598  2.40392e-08  3.4033e-07  -2.00778e-06  5.97312e-06  -3.48681e-05  0.000207675  8.82197  
7.24166  5.92699  -3.05801  0.00403827  -0.00322652  0.00117397  0.010175  0.000965084  0.00346731  2.29549  
-6.9941  5.8358  -2.57975  3.64527e-07  5.49156e-07  1.02028e-05  2.20629e-06  2.61278e-05  0.000515391  0.928212  
-7.2269  6.05123  -4.09727  4.69079e-06  8.24312e-05  6.07709e-05  0.00150513  0.0010285  0.000957049  3.46754  
-7.82915  9.74948  -22.4124  0.00166759  -0.0010402  0.000102808  0.00129018  0.000172024  0.000253905  5.19643  
-8.00559  -10.6277  -6.4123  0.000441645  -0.000478409  -7.42441e-06  0.000528755  8.1246e-06  7.30802e-07  1.85648  
-8.36081  -11.2441  -4.3177  0.300171  -0.00656498  -0.00365689  0.150535  -0.00762275  0.109439  1.40945  
7.803  9.77522  -22.3697  0.000356  0.000242092  6.37441e-06  0.000220287  4.37624e-06  1.3863e-07  3.03017  
7.85703  9.77279  -22.4119  0.000501134  0.000462713  -0.000187037  0.0011404  0.000108778  0.00025124  2.59899  
-7.20921  5.84503  -2.57605  3.61708e-07  5.42509e-07  1.01039e-05  2.20745e-06  2.60877e-05  0.000515394  0.928209  
8.1345  -10.9144  -10.4887  0.00396596  0.00429634  7.1212e-05  0.00474874  7.79323e-05  6.72112e-06  1.85648  
8.79185  -11.0324  -12.5165  0.00839474  -0.00765704  0.000135943  0.00712598  -0.000125236  1.18937e-05  1.85648  
6.98271  6.00978  -2.35246  2.76591e-06  -5.58093e-05  -1.52471e-05  0.0011865  0.000319449  9.45763e-05  2.16251  
8.78704  -11.9922  -22.4117  0.000724163  0.000716738  -0.00017413  0.001719  0.000109083  0.0002516  4.33669  
-7.30716  4.34628  -4.50509  1.83227e-07  5.21486e-06  -7.98688e-06  0.000415862  -0.000725107  0.00132871  1.30501  
7.7383  9.9512  -22.8446  0.00496393  0.00140223  8.75225e-05  0.000938795  2.51097e-05  1.7369e-06  4.33167  
7.15632  6.25287  -4.67077  0.0197511  -0.000213558  -0.000206987  0.0354983  0.0120226  0.00629576  7.889  
-7.08397  4.33888  -4.05025  1.98898e-06  1.93665e-05  5.9405e-05  0.000208632  0.000597609  0.0019374  3.52696  
6.9887  5.8952  -2.4143  3.1768e-06  -5.04061e-05  -5.21871e-05  0.000827853  0.000847728  0.000900033  1.73282  
7.28245  6.50839  -7.1202  0.000509393  -0.000473181  7.97434e-06  0.000448468  -7.48169e-06  7.22994e-07  1.85648  
-7.04793  5.43538  -4.68083  0.00726754  -0.00139957  -5.62006e-05  0.0331935  -0.00213664  0.000147323  1.72472  
7.08087  4.37915  -3.97004  3.92667e-06  -6.01616e-05  -7.31975e-05  0.000951629  0.00113338  0.00145072  3.03177  
8.3336  -11.1674  -2.9475  0.300163  0.00656641  0.00365553  0.150535  -0.00762327  0.109438  1.85102  
7.1798  6.46148  -2.4024  4.48527e-07  -1.54614e-05  1.81358e-05  0.000704948  -0.000854737  0.00107745  1.73388  
-7.92754  9.82328  -22.8414  0.000208914  0.000151127  -3.51232e-06  0.00376431  1.50919e-07  2.54642e-07  2.59817  
7.18523  6.30171  -2.32327  2.75586e-06  -6.34311e-05  5.74282e-06  0.0015356  -0.000143461  2.41219e-05  2.6604  
8.75659  -11.9647  -22.3692  5.35557e-05  0.000111575  1.01312e-06  0.000424599  2.26037e-06  4.36244e-08  2.13363  
8.68164  -11.997  -22.3705  0.000357732  -0.00017523  6.09397e-06  0.000113373  -2.96259e-06  1.28127e-07  1.74143  
-7.29476  4.55134  -4.29838  4.23049e-07  1.1956e-05  -1.07978e-05  0.000604057  -0.000798239  0.00134065  2.16472  
8.64874  -12.0237  -22.4142  0.00110139  -0.000641156  0.000146373  0.000770884  0.000156451  0.00026278  3.03406  
-7.99694  5.88376  -3.3391  9.06342e-06  4.22335e-05  0.000383664  0.000304129  0.00167257  0.017862  1.71099  
-7.2282  5.94894  -3.92023  5.01891e-06  9.81848e-05  4.06681e-05  0.00198319  0.000753212  0.000479379  3.46496  
8.65957  -11.926  -22.3708  0.000122339  0.000185036  2.26456e-06  0.000380092  3.49657e-06  6.62584e-08  2.60513  
-7.21702  6.60655  -3.25208  0.011385  -0.00140267  -0.00722032  0.00526569  -0.0119694  0.0748351  7.79276  
-8.7116  -12.0028  -22.37  0.000429644  -3.9494e-05  -7.51389e-06  2.45291e-05  7.06353e-07  1.55909e-07  1.4571  
8.02146  5.89499  -4.77088  8.1436e-06  -0.00024224  0.000158924  0.00777615  -0.00518025  0.0036031  2.23278  
-6.98743  5.91682  -2.3969  4.94218e-06  8.52808e-05  6.7857e-05  0.00150806  0.00117771  0.000990885  3.46529  
7.98242  6.91908  -5.0595  3.40449e-08  7.59593e-07  -4.24368e-06  2.24382e-05  -0.000124091  0.000700197  9.97085  
6.97679  6.61156  -3.49438  7.02185e-06  0.00010186  -0.000600422  0.00169571  -0.00989295  0.0588886  7.7318  
-8.46136  -11.7201  -22.7187  0.00238337  -0.00251551  -4.33375e-05  0.00283863  4.58728e-05  1.08359e-06  1.7324  
-7.28805  4.54039  -3.88725  3.20063e-06  6.81097e-05  8.45397e-06  0.00151264  0.000183628  3.27744e-05  2.66065  
-7.22365  6.09357  -4.01547  8.73777e-07  4.41115e-06  3.35089e-05  0.000103154  -1.556e-06  0.00192248  2.60019  
7.99813  9.66344  -22.7298  0.00890586  0.00418232  0.00212742  0.0161028  -0.00201806  0.00170749  13.9231  
-7.72895  9.73259  -22.4141  0.00113703  0.000467484  -0.000114955  0.000493944  0.000183674  0.000261694  2.5982  
-8.69439  -10.1525  -3.88091  4.1974e-05  0.000775585  0.000454523  0.0146538  0.00843002  0.00532895  3.4648  
6.9698  6.30035  -2.32816  3.35678e-06  -7.83024e-05  9.64648e-06  0.0019026  -0.000242521  4.96918e-05  3.0931  
-7.0733  4.52334  -3.89233  4.02398e-06  8.53475e-05  1.35782e-05  0.00187152  0.000290627  6.38931e-05  3.09395  
-7.67698  9.82524  -22.415  0.000227335  -8.08258e-05  -0.00021793  0.00113694  -1.73592e-05  0.000265255  1.73217  
7.63663  9.8491  -22.8464  0.000371774  0.000758188  7.01842e-06  0.00360128  1.58354e-05  3.27203e-07  2.59825  
7.40175  7.67549  -12.9694  0.00816326  -0.00757592  0.000135942  0.00717359  -0.000127425  1.18414e-05  1.85648  
8.0171  6.15259  -5.15695  9.70102e-07  3.15298e-06  -1.06411e-05  0.000259648  -0.000827927  0.00269357  0.92821  
-7.17974  6.46148  -2.4024  4.42047e-07  1.52456e-05  -1.7775e-05  0.000704944  -0.000854735  0.00107745  1.73386  
-8.0168  6.12206  -5.06404  8.74822e-07  4.59576e-06  -4.25534e-07  0.00179974  -0.00416746  0.0102434  3.52716  
7.21911  5.84462  -3.14115  5.40571e-07  3.86975e-06  -3.85579e-05  2.92381e-05  -0.000288247  0.0028994  11.3831  
7.0814  4.63456  -4.62835  0.00779763  -0.00330539  -0.00342049  0.0186654  0.00332145  0.0130055  0.846572  
-7.98268  6.92754  -5.10632  1.04718e-07  -2.91928e-06  1.61599e-05  8.70825e-05  -0.000477194  0.00266802  21.7879  
8.01735  6.06789  -4.96172  2.44272e-06  -9.21025e-05  0.000120594  0.00552664  -0.00832982  0.0135816  4.69721  
8.72958  -11.9052  -22.3696  0.00048749  -0.000227976  8.31199e-06  0.000169429  -3.83827e-06  1.66152e-07  3.46751  
8.00565  -10.6277  -6.4123  0.000441673  0.00047841  7.43173e-06  0.000528724  8.13211e-06  7.3104e-07  1.85648  
8.66235  -11.622  -20.676  0.100677  0.00302679  0.00175504  0.0303699  7.47568e-05  4.30477e-05  3.69848  
8.71785  -12.0006  -22.3699  0.000515906  0.000108032  9.05396e-06  6.12319e-05  1.92803e-06  1.83389e-07  3.02808  
8.75245  -12.1813  -22.714  0.0077197  0.00130071  0.00013532  0.000521565  2.30257e-05  2.84955e-06  1.73271  
-7.08112  4.37425  -3.97385  2.90176e-06  4.27816e-05  5.5278e-05  0.000656252  0.000836287  0.00110882  1.73295  
8.77275  -10.8871  -10.4776  0.00471949  -0.00430229  7.76685e-05  0.00400161  -7.15104e-05  6.72443e-06  1.85648  
7.0699  4.72905  -4.20376  2.32935e-07  -2.62762e-06  -1.08402e-06  0.000292798  -0.000560027  0.00141134  1.7334  
-7.21909  5.84462  -3.14115  5.25718e-07  -3.81893e-06  3.80485e-05  2.92377e-05  -0.000288244  0.00289939  11.3831  
7.98294  6.93467  -5.14583  4.20993e-08  1.01368e-06  -5.56929e-06  3.04022e-05  -0.000165362  0.000917686  11.8174  
7.92417  9.78498  -22.8414  0.000371782  0.000758239  7.01845e-06  0.00360173  1.58409e-05  3.27243e-07  2.59816  
-6.98431  6.06735  -2.58838  4.69253e-06  8.24525e-05  6.08157e-05  0.00150533  0.00102938  0.000957642  3.4654  
6.97845  6.23226  -2.65668  7.54537e-07  -3.59244e-06  -2.84567e-05  0.00020312  -0.000277133  0.0022606  3.46784  
-7.22405  6.05109  -3.93367  1.62414e-06  4.67635e-05  -2.7564e-05  0.00150868  -0.00103067  0.000957875  3.46527  
-7.28661  4.67912  -4.14555  2.76352e-06  7.19359e-05  -2.3926e-05  0.00198566  -0.000753114  0.000478247  3.4645  
-7.73407  8.4653  -16.8644  0.130752  -0.00487571  -0.00227949  0.0173212  9.78018e-05  5.23314e-05  3.6776  
7.6282  9.99708  -22.7603  0.00399296  0.00208909  -0.00090503  0.00320445  0.00116805  0.00170885  1.73216  
-7.30626  4.38815  -4.55678  1.02111e-06  3.3616e-05  -2.97109e-05  0.00125699  -0.00116034  0.00114727  3.02987  
-6.96435  6.48651  -2.47495  2.01102e-07  4.69119e-07  3.40719e-06  0.000350506  -0.00083385  0.00224231  3.96173  
8.69805  -10.2201  -3.92075  2.7951e-05  -0.000481506  -0.000374278  0.00854918  0.00658778  0.00527952  1.73257  
8.00205  7.31392  -11.0085  0.00385112  0.00424413  7.01098e-05  0.00477222  7.80555e-05  6.66173e-06  1.85648  
-6.98297  6.00342  -2.35405  3.31498e-06  6.65732e-05  1.91111e-05  0.00139197  0.000395712  0.000123526  2.66122  
7.2962  4.38494  -3.97119  4.06526e-06  -6.12002e-05  -7.83003e-05  0.000954385  0.00118671  0.00159509  3.4669  
-8.70613  -10.3508  -4.06616  2.44049e-05  0.000342236  0.000512861  0.00500322  0.00731694  0.011407  2.59898  
8.0071  6.92681  -9.05795  0.00170761  0.00188426  2.91834e-05  0.00212139  3.25321e-05  2.88994e-06  1.85648  
-6.98755  6.0554  -2.74494  8.46294e-07  2.57175e-05  -2.04735e-05  0.000948244  -0.00086134  0.000949567  1.73283  
6.9825  6.10284  -2.56852  4.19225e-06  -8.55101e-05  -2.33651e-05  0.0017979  0.000455733  0.000226203  2.59867  
7.18168  6.39596  -2.35008  2.3275e-06  -6.57759e-05  3.38669e-05  0.00196023  -0.00104159  0.000613368  3.46567  
-7.21239  5.96797  -3.06062  0.00104559  0.000751732  -0.000504796  0.008936  0.00161539  0.00324977  1.56223  
8.57895  -11.3349  -16.5988  0.129484  0.00481718  0.00225613  0.0172057  9.6218e-05  5.2051e-05  3.67021  
-6.96623  6.39468  -2.3569  1.67764e-06  4.81164e-05  -2.78556e-05  0.00147727  -0.000873513  0.000551256  2.16692  
-7.73613  9.90583  -22.4139  0.000989351  -0.000325084  -9.669e-05  0.000361998  -0.00019721  0.000260531  1.29908  
8.3376  -11.1201  -14.5637  0.0520615  0.0141706  0.000916782  0.00653225  0.000251677  2.62262e-05  0.927997  
7.23812  5.64709  -3.74562  5.13705e-05  -0.000887386  -0.000753671  0.0156402  0.0125268  0.0124852  10.2904  
-7.63661  9.84911  -22.8464  0.000371482  -0.000757834  -7.02011e-06  0.00360126  1.58855e-05  3.27422e-07  2.59829  
-7.52124  7.98971  -14.9178  0.0549149  0.0101065  -0.000948194  0.00448201  -0.000172456  2.6346e-05  0.928063  
7.76301  9.86906  -22.3704  0.000395727  6.66178e-05  6.94008e-06  2.67443e-05  1.18212e-06  1.46166e-07  1.73336  
-8.89179  -11.2522  -14.5541  0.00656274  0.00598309  -0.000109657  0.00556539  -0.00010096  1.69612e-05  0.928242  
-7.2311  5.9613  -4.11711  2.8049e-06  6.9346e-05  -1.56094e-05  0.00179928  -0.000454748  0.000225081  2.5993  
-7.03198  5.81707  -4.70585  3.35154e-05  0.000791247  -5.19948e-05  0.0190594  -0.00123992  8.23011e-05  8.78518  
8.73  -11.1032  -14.5568  0.054154  -0.0100867  0.000935038  0.00445015  -0.000172364  2.62297e-05  0.927996  
-8.72784  -11.9024  -22.3696  0.000381311  0.000166391  -6.51996e-06  0.000100647  -2.82737e-06  1.35937e-07  2.16656  
-8.02162  5.50831  -3.83095  3.25282e-05  0.000634275  0.000250579  0.0127534  0.00499412  0.00208127  0.866055  
7.20626  5.86836  -2.46241  2.45807e-06  -3.07726e-05  -5.97951e-05  0.000406748  0.000765052  0.00155243  2.13389  
-7.44095  10.132  -22.7204  0.0122568  -0.00400044  -0.00164809  0.0113821  1.90437e-05  0.027576  0.804096  
8.75639  -11.9348  -22.3692  5.93773e-05  -0.00012074  9.41516e-07  0.000413469  -1.81552e-06  3.94634e-08  1.76686  
-7.25021  5.41525  -3.86961  5.31614e-05  0.00109436  0.000333243  0.0229853  0.00645544  0.00322841  10.2741  
8.0333  5.25315  -3.87205  1.12019e-05  -0.000218371  -1.92686e-05  0.00495469  0.000433098  4.82556e-05  0.928209  
-7.19267  6.42841  -3.06235  0.000794232  -0.000948538  -0.000277422  0.0151606  -0.00120454  0.00121806  0.866008  
-7.0161  5.76363  -3.66392  0.00948058  0.000230742  8.87628e-05  0.00631353  0.00820137  0.0117657  2.59839  
8.8918  -11.2522  -14.5541  0.00655996  -0.00598182  0.000109634  0.00556538  -0.00010096  1.69577e-05  0.928242  
-7.20172  6.21703  -3.06155  4.34992e-05  0.000994903  -3.89207e-06  0.0232342  -9.08898e-05  1.25221e-06  3.46416  
7.85936  9.69269  -22.8426  0.00274522  0.00161531  4.90013e-05  0.00122849  2.90312e-05  1.0683e-06  2.59882  
-7.36168  8.13933  -14.9204  0.00637982  0.0059235  -0.000106138  0.0056115  -9.95254e-05  1.67239e-05  0.928242  
7.57236  6.61107  -3.02785  0.0240158  0.000836944  0.0022177  3.01007e-05  7.78877e-05  0.000208948  3.46518  
-8.98793  -11.8828  -22.7297  0.00362028  -0.00115606  -0.00172231  0.00603829  0.00113565  0.000913548  3.71894  
7.08415  4.33709  -4.05595  1.79244e-06  -1.63222e-05  -5.38588e-05  0.000168367  0.000512473  0.0017675  3.09437  
7.07329  4.69897  -4.32274  4.30572e-06  -7.32756e-05  -6.01225e-05  0.00129789  0.000992625  0.000999906  2.98236  
-8.90985  -11.7308  -22.7259  0.00684059  0.00278316  -0.00113319  0.00699279  0.00127776  0.000792782  7.66679  
-8.9439  -12.0015  -22.7536  0.00193438  -0.00275007  -0.000660332  0.00718529  0.000681011  0.000281444  0.866095  
-7.06593  5.00429  -4.65259  0.000110567  0.00260079  -0.000172998  0.0624187  -0.004126  0.000278275  4.33035  
-8.00707  6.92681  -9.05795  0.00171118  -0.00188624  -2.91861e-05  0.00212143  3.25013e-05  2.89118e-06  1.85648  
7.09178  4.31614  -4.44001  3.3087e-07  2.43694e-06  -1.89192e-05  0.000142092  -0.000506519  0.00242974  3.96348  
-7.76886  9.24013  -20.7646  0.101834  -0.00306331  -0.00177477  0.0305496  7.61831e-05  4.35761e-05  3.70044  
-7.97684  5.97895  -2.98921  0.00233624  -0.00125519  0.000699554  0.0112272  0.0019491  0.00310528  1.81093  
7.8663  9.93936  -22.8423  0.00219609  -0.00145814  3.71468e-05  0.00114303  -2.45464e-05  8.21836e-07  1.73268  
7.72395  9.79428  -22.3711  8.46834e-05  -0.00014999  1.37148e-06  0.000337766  -2.36928e-06  4.67462e-08  1.73252  
-7.03456  5.42417  -3.88743  0.0100354  0.00226972  -0.000137972  0.0311292  0.00976198  0.00414088  5.25893  
9.0484  -12.2595  -22.7089  0.0151969  0.00668757  -0.00949147  0.0143311  0.0014914  0.0252145  0.817963  
-7.97356  6.28653  -2.98957  0.000293477  0.00163229  -2.85236e-05  0.0288396  -0.000159208  3.64579e-06  4.33027  
8.6811  -9.8774  -3.79543  2.23954e-05  -0.000470793  -5.71375e-05  0.0104024  0.00123851  0.00021557  2.23503  
-8.57892  -11.3349  -16.5988  0.129447  -0.00481519  -0.00225577  0.0172059  9.62477e-05  5.20489e-05  3.67016  
7.73357  9.85214  -22.3709  0.000232541  0.000225111  4.21004e-06  0.000270493  4.11103e-06  1.00678e-07  2.60095  
7.0413  5.59474  -4.69128  0.00150475  -0.00251959  0.000193477  0.0734798  -0.00477102  0.000316889  9.03552  
7.52347  9.81753  -22.7487  0.00466004  0.00389749  -0.00255804  0.00947227  -0.00144995  0.00186937  4.29963  
7.07643  4.45732  -3.90995  5.17066e-06  -9.9909e-05  -4.44009e-05  0.0019761  0.000858883  0.000421368  3.02493  
8.61413  -11.942  -22.4147  0.000293239  0.000125488  0.000211737  0.00169368  -1.55812e-05  0.000265023  3.4686  
-7.3032  4.48023  -4.60758  2.853e-06  7.26258e-05  -2.21004e-05  0.00193691  -0.000600382  0.000210313  3.52703  
7.8168  9.90086  -22.4125  0.00114514  -0.000461204  -8.48781e-05  0.000494475  -0.000199454  0.00025415  2.59928  
-8.18913  -11.2823  -14.5664  0.00552652  -0.00597927  -0.000100606  0.00660045  0.000109972  1.69597e-05  0.928242  
-7.08808  4.47101  -4.61134  2.85307e-06  7.26223e-05  -2.20137e-05  0.00193667  -0.000598073  0.000209112  3.52695  
-6.98762  6.02671  -2.67779  8.04338e-07  4.04387e-06  3.04505e-05  0.000162444  -0.000168824  0.00216013  3.03354  
7.1916  6.6556  -3.55769  0.0122347  0.000755744  0.00384013  0.00223479  -0.0102172  0.0680114  2.53108  
7.5213  7.98971  -14.9177  0.0549234  -0.0101079  0.000948266  0.00448201  -0.000172456  2.63487e-05  0.928062  
7.07245  4.64439  -4.13875  2.83492e-06  -6.61932e-05  7.27493e-06  0.00161373  -0.000204298  8.76456e-05  1.73231  
-8.19892  -11.0578  -12.5268  0.00706443  -0.00764153  -0.000130641  0.00843361  0.000142757  1.20949e-05  1.85648  
-7.19766  6.71572  -4.05555  2.59125e-07  3.67074e-06  2.39448e-06  6.79284e-05  4.3894e-05  2.89393e-05  1.85648  
7.8523  10.0179  -22.7564  0.0127845  -0.00383312  0.000649795  0.00376684  0.00119589  0.00176045  5.19688  
8.4033  -12.2872  -22.7202  0.0159914  -0.00760318  0.00945736  0.0147371  0.000850614  0.0258481  0.817928  
-8.09883  9.78466  -22.7092  0.00243084  0.00139435  -4.12687e-05  0.00272588  -2.22887e-05  9.95544e-07  0.991346  
8.0121  6.5397  -7.10745  0.000426899  0.000470915  8.76474e-06  0.000530018  9.76745e-06  7.77663e-07  1.85648  
7.3617  8.13933  -14.9204  0.00638302  -0.00592499  0.000106164  0.0056115  -9.95254e-05  1.67278e-05  0.928242  
-6.97874  6.23356  -2.67779  1.30021e-06  9.82065e-06  4.47768e-05  0.000161885  0.000165652  0.00216016  3.03359  
-8.74805  -11.9757  -22.3693  0.000265782  -0.000300817  -4.84057e-06  0.000567365  5.64113e-06  1.12695e-07  4.71065  
-8.69029  -11.9003  -22.3703  0.000436489  -0.00012901  -7.69345e-06  6.60194e-05  2.29698e-06  1.60111e-07  2.59837  
8.95191  -11.8471  -22.7103  0.00604571  -0.00109901  0.000104373  0.0169815  -6.45829e-06  2.0902e-06  9.83348  
7.13404  6.65574  -4.46805  0.0184593  0.00684381  -0.0039342  0.0232843  -0.00042259  0.0379816  7.87835  
7.9159  9.88004  -22.8415  0.000669469  -0.00118503  1.07488e-05  0.00266954  -1.86273e-05  3.66292e-07  1.73251  
7.7872  6.61854  -3.00765  0.0165899  -0.00148825  0.00157854  0.000872486  -0.000143349  0.000153248  0.866411  
-7.07772  4.43277  -3.92296  5.027e-06  9.2179e-05  5.58813e-05  0.00173009  0.00103098  0.000669463  3.03126  
8.0701  -10.7711  -8.4505  0.00176669  0.00191066  3.26444e-05  0.00210833  3.56653e-05  3.02326e-06  1.85648  
-7.77523  9.747  -22.7148  0.030837  3.00677e-05  -0.000536865  0.0278812  1.99974e-05  9.54854e-06  56.9081  
7.68027  9.83738  -22.4149  0.000297737  0.000240335  0.000211763  0.00132956  -4.2086e-05  0.000264975  2.5985  
6.9849  6.13019  -2.77595  3.46657e-06  -7.77221e-05  -1.39537e-06  0.00180673  -3.39111e-07  8.75704e-05  1.72954  
-8.01209  6.5397  -7.10745  0.000427777  -0.0004714  -8.76679e-06  0.000530019  9.75969e-06  7.77918e-07  1.85648  
-7.19873  6.70639  -4.09343  1.03556e-05  3.05051e-05  0.000480449  0.00118284  -0.00115802  0.0303939  4.5216  
-7.15278  6.25814  -4.66817  0.0200999  0.000999271  0.000604828  0.0362743  0.0126835  0.00677069  8.07178  
-8.65776  -11.9327  -22.3709  0.000103636  -0.000170434  -1.93138e-06  0.000507725  3.347e-06  6.04601e-08  3.47037  
-7.93815  -10.4604  -4.26103  1.53085e-05  0.000146334  0.000462492  0.0015547  0.0045671  0.0152778  3.52708  
7.919  8.00677  -14.9108  0.0528132  0.0142596  0.000930629  0.00657697  0.000253461  2.63694e-05  0.928063  
7.20052  6.71092  -4.20782  7.35179e-06  -8.07648e-05  -0.000191102  0.00182705  0.000158832  0.0105933  2.697  
7.87223  5.86836  -2.99938  0.0116712  0.00199127  -0.00122744  0.00220632  0.000537871  0.0031486  1.78271  
6.9879  6.0286  -2.69734  3.84362e-07  -1.66174e-06  -1.21246e-05  0.000225565  -0.000455939  0.00180014  2.60053  
-7.35056  5.84133  -3.04823  0.010516  0.000256988  -0.00285723  0.000968459  0.000209172  0.00284443  1.59952  
7.02597  5.96188  -4.71535  8.55609e-06  -0.000196087  1.2844e-05  0.00466395  -0.000304801  2.0324e-05  2.85655  
8.71473  -10.4465  -4.32285  6.19084e-06  -4.04854e-05  -0.000187849  0.000342758  0.0014671  0.00707341  1.79451  
-8.4033  -12.2872  -22.7202  0.0291893  0.00169802  0.005204  0.0256006  -0.00766953  0.0314483  0.821264  
8.64949  -11.7053  -22.7155  0.0289036  0.00398715  0.000506568  0.00694495  7.4535e-05  9.10848e-06  16.1574  
-7.88002  9.92553  -22.8421  0.00213712  0.0017773  -3.58896e-05  0.00183531  -2.95761e-05  7.96485e-07  2.59832  
-7.30681  4.32337  -4.42872  3.72001e-07  -2.59966e-06  2.06922e-05  8.45944e-05  -0.000356998  0.00206523  3.528  
7.7337  9.90107  -22.4139  0.00144931  0.000543815  0.000110525  0.000540837  -0.000182422  0.000260877  3.46635  
7.97305  6.77612  -4.16303  3.25114e-05  0.000387325  -0.00264217  0.00515923  -0.0346725  0.237746  7.62759  
-7.29778  4.36197  -4.00618  2.60199e-06  3.23335e-05  6.37955e-05  0.000424829  0.00080693  0.00166802  2.59899  
-8.66235  -11.622  -20.676  0.100681  -0.00302268  -0.00175604  0.0303697  7.48099e-05  4.30817e-05  3.69849  
8.68973  -10.0628  -3.83385  3.39765e-05  -0.000671774  -0.000252795  0.0136232  0.00504637  0.00209282  2.15763  
-7.29399  4.53787  -4.22148  1.65351e-06  1.5203e-05  5.19185e-05  0.000211712  0.000352829  0.00211437  3.03429  
7.07274  4.53663  -3.89048  2.69641e-06  -5.82969e-05  -6.59288e-06  0.00132925  0.000146789  2.49029e-05  2.23399  
-7.69462  9.93749  -22.8453  0.00249201  -0.00161892  -4.45295e-05  0.00131867  2.9111e-05  9.89426e-07  2.16523  
-7.20874  5.84464  -2.54815  6.02716e-07  2.59399e-06  2.12576e-05  1.60797e-05  0.000109797  0.000950986  0.866219  
-6.99296  5.8398  -2.52443  1.36472e-06  1.03061e-05  4.66832e-05  9.19967e-05  0.00036378  0.00177323  2.60276  
-7.78192  9.9649  -22.8438  0.00362681  1.07802e-05  -6.31198e-05  0.00018344  -5.98887e-08  1.2922e-06  2.16508  
-8.08708  10.1597  -22.7091  0.0130618  0.00385625  0.00215529  0.0107076  -0.000281142  0.0274429  0.804063  
7.30303  4.48607  -4.60942  2.611e-06  -6.6123e-05  1.90086e-05  0.00176224  -0.000512752  0.000168761  3.08531  
7.07948  4.54367  -4.29476  7.5217e-07  -1.87639e-05  8.9632e-06  0.000880257  -0.0010851  0.00213198  4.33409  
8.65586  -11.8701  -22.4139  0.0010546  0.000515395  0.000130299  0.000578335  -0.000173498  0.000261706  2.60148  
6.98603  6.03904  -2.61756  2.67086e-06  -3.69563e-05  -5.86495e-05  0.000556199  0.000785847  0.00146602  2.59992  
-7.73157  9.85018  -22.3709  0.000202987  -0.000214558  -3.7006e-06  0.000279267  3.94329e-06  9.19856e-08  2.16495  
6.98153  6.19786  -2.74877  4.36973e-06  -7.46643e-05  -6.03162e-05  0.00132739  0.000998818  0.00099502  3.03405  
7.99696  5.88376  -3.3391  9.00145e-06  -4.20874e-05  -0.000382227  0.00030413  0.0016726  0.017862  1.71099  
8.7537  -10.7417  -8.4386  0.00210196  -0.00191412  3.56113e-05  0.00177847  -3.27531e-05  3.02665e-06  1.85648  
-7.90913  -9.9642  -3.81745  3.5172e-05  0.000741862  0.000137783  0.016114  0.00292494  0.000710736  3.52723  
-8.62065  -11.4788  -18.6374  0.128267  -0.00448069  -0.00223476  0.0239878  9.58566e-05  5.0873e-05  3.68635  
-6.98518  6.12252  -2.77363  3.8654e-06  8.96341e-05  -4.35125e-06  0.00215934  -0.000167851  0.0001626  3.03216  
-7.09202  4.32863  -4.48695  1.9616e-07  2.20384e-06  1.66607e-07  0.00040692  -0.000871051  0.00214527  3.46525  
-8.76513  -11.6261  -22.7134  0.00432183  0.000429246  -7.49787e-05  9.07678e-05  -7.40012e-06  1.67522e-06  1.79537  
8.73465  -10.5964  -6.3996  0.000522233  -0.000477056  8.07044e-06  0.000444636  -7.44601e-06  7.28489e-07  1.85648  
7.71164  9.75001  -22.4144  0.00128798  -0.000874928  0.000156762  0.00114411  0.000137388  0.000263056  4.33246  
7.1977  6.71571  -4.05555  2.40492e-07  -3.49393e-06  -2.27956e-06  6.79117e-05  4.38913e-05  2.89429e-05  1.85648  
8.00175  5.83989  -3.5056  1.90295e-05  -0.000218039  -0.000498643  0.00268198  0.00588505  0.0140543  1.73222  
-6.97856  6.20441  -2.59579  9.09762e-07  2.75731e-05  -2.13353e-05  0.00101303  -0.000910105  0.00101297  2.59913  
7.00602  5.87691  -3.36304  0.00972227  -0.000380152  0.00185386  0.000902134  0.00272504  0.01951  3.52659  
-7.09102  4.38429  -4.56638  1.04053e-06  3.30717e-05  -2.74923e-05  0.0011804  -0.00101154  0.000915572  2.60046  
7.2935  4.54121  -4.19995  1.94888e-06  -2.24907e-05  -4.92587e-05  0.00029114  0.000558264  0.00141278  1.73243  
-7.56901  6.61095  -3.02816  0.023869  -0.000831894  -0.00220356  2.99277e-05  7.73959e-05  0.00020756  3.3656  
7.2038  5.90442  -2.4105  3.17764e-06  -5.04118e-05  -5.225e-05  0.000827808  0.000848639  0.000902149  1.7332  
7.73409  8.4653  -16.8644  0.130742  0.00487462  0.00227987  0.0173212  9.76401e-05  5.2349e-05  3.67754  
6.99329  5.83875  -2.53897  1.32942e-06  -8.55569e-06  -4.87346e-05  7.14947e-05  0.000317906  0.00203564  3.53106  
7.2061  6.8506  -4.87215  3.07825e-06  3.87246e-05  -0.000223451  0.000611751  -0.00349695  0.0203955  0.702742  
-7.92178  -10.2204  -3.91282  3.39699e-05  0.000606449  0.000410935  0.011113  0.00742853  0.0052834  2.59915  
-8.72995  -11.1032  -14.5568  0.0541487  0.0100871  -0.000934992  0.00445015  -0.000172364  2.62321e-05  0.927995  
7.28782  4.71827  -4.31145  3.38966e-06  -5.36883e-05  -5.58266e-05  0.000889346  0.000873485  0.00105215  2.16558  
-8.3376  -11.1201  -14.5637  0.052063  -0.0141725  -0.000916796  0.00653226  0.000251677  2.62311e-05  0.927996  
6.96472  6.45081  -2.40732  6.66424e-07  -2.33364e-05  2.57298e-05  0.00102381  -0.00121279  0.0015513  3.46524  
-7.19808  6.01265  -2.35029  3.31754e-06  6.65977e-05  1.91121e-05  0.00139206  0.000395475  0.000123179  2.66038  
-7.29109  4.65252  -4.3372  6.72144e-06  0.000144843  2.33978e-05  0.00322271  0.000375786  0.000419688  5.19773  
-7.28245  6.5084  -7.1202  0.000510033  0.000473494  -7.98696e-06  0.000448497  -7.48906e-06  7.23632e-07  1.85648  
7.09186  4.35049  -4.52914  3.70194e-07  -1.27247e-05  1.59979e-05  0.000672111  -0.00092163  0.00133769  2.16371  
8.02872  5.69061  -4.68585  1.69194e-05  -0.000425412  0.000109536  0.0111675  -0.00291745  0.000857553  3.52675  
7.25297  5.6917  -4.70578  1.40812e-05  -0.000360606  0.000108827  0.00966159  -0.00294913  0.000976301  2.59835  
7.28538  4.73668  -4.21483  7.18019e-07  -7.343e-06  -1.75911e-05  0.000422155  -0.00062735  0.00259161  4.33268  
7.99315  5.87495  -3.09821  9.91781e-07  7.07054e-06  -7.1234e-05  5.31576e-05  -0.000529941  0.00539038  11.3864  
7.28707  4.6669  -4.13918  2.7463e-06  -6.85413e-05  1.53161e-05  0.00179931  -0.000454159  0.000224594  2.59841  
7.29383  4.58728  -4.33195  1.7816e-06  -4.90609e-05  2.39879e-05  0.00146733  -0.000788398  0.000558955  2.59885  
7.19609  6.69968  -3.92434  2.82386e-06  1.43852e-05  -0.000152107  0.000155139  -0.00120464  0.0117292  1.82461  
8.1892  -11.2823  -14.5664  0.00552071  0.00597612  0.000100553  0.00660045  0.000109972  1.69523e-05  0.928242  
-7.69942  9.87738  -22.4145  0.000686828  -0.000531621  -0.000175131  0.000874986  -0.000128427  0.000263443  2.16528  
-7.79377  9.77013  -22.3699  0.000476414  -0.00020224  -8.43254e-06  0.000135384  3.61618e-06  1.73766e-07  3.46487  
-7.36195  7.28645  -11.0196  0.00458751  0.00425922  -7.66196e-05  0.00403472  -7.18494e-05  6.66414e-06  1.85648  
7.86347  9.84515  -22.4117  0.000360684  -0.000321415  -0.00020477  0.00128155  -6.95866e-05  0.000250411  2.59878  
7.93818  -10.4604  -4.26103  1.53755e-05  -0.000146564  -0.000463831  0.00155472  0.00456715  0.0152779  3.52708  
8.7075  -10.3686  -4.10112  2.67931e-05  -0.000358005  -0.00061421  0.00501263  0.00825021  0.0149802  3.46505  
-7.20434  5.89571  -2.42135  3.49665e-06  5.37129e-05  6.30625e-05  0.000853715  0.000984467  0.00119874  2.5997  
-6.9806  6.14397  -2.5643  2.79504e-06  6.57302e-05  -7.29214e-06  0.00161353  -0.000205257  8.81898e-05  1.73239  
7.2881  4.54039  -3.88725  3.22418e-06  -6.83654e-05  -8.4694e-06  0.00151265  0.00018363  3.27744e-05  2.66073  
8.47083  -11.9607  -22.7188  0.00585536  -0.00512755  9.82909e-05  0.0147527  -7.84436e-05  1.99486e-06  7.16151  
-7.00599  5.87691  -3.36304  0.00972077  0.00038018  -0.00185397  0.000902138  0.00272506  0.0195101  3.52661  
-7.23231  5.88629  -4.00202  1.56713e-06  1.34468e-05  5.11923e-05  0.000202356  0.000274259  0.00226272  3.46651  
-8.90492  -12.0849  -22.7544  0.00282192  -0.0036008  -5.17654e-05  0.00542394  6.67063e-05  1.42811e-06  1.73225  
7.60496  5.85042  -3.02482  0.0240156  0.000855054  0.0022273  3.13769e-05  7.99179e-05  0.000210762  3.46521  
-8.73463  -10.5964  -6.3996  0.000524439  0.000478079  -8.08748e-06  0.000444666  -7.44625e-06  7.29857e-07  1.85648  
8.0296  5.3399  -3.87075  1.9905e-05  -0.000411658  -6.67821e-05  0.00905723  0.00145247  0.000274266  0.866086  
-6.96485  6.4427  -2.39578  6.62537e-07  2.23178e-05  -2.2725e-05  0.000910344  -0.000963033  0.00107017  1.73138  
-7.68557  9.77614  -22.4148  0.000383515  0.000351905  -0.000200732  0.000981325  8.68443e-05  0.000264771  1.73225  
-8.00205  7.31392  -11.0084  0.00385112  -0.00424413  -7.01098e-05  0.00477222  7.80555e-05  6.66173e-06  1.85648  
-8.65477  -11.6286  -22.7153  0.00453183  -0.000582052  -7.93349e-05  9.22403e-05  1.02071e-05  1.76529e-06  0.92792  
7.8404  9.49012  -22.7139  0.00388087  -0.000182131  0.000380454  0.00185328  -0.000858248  0.000423286  0.928162  
-7.29986  4.34097  -4.07333  8.00291e-07  5.42705e-06  2.41273e-05  4.7183e-05  0.000195166  0.000901364  1.79515  
7.0706  4.7363  -4.2585  1.03033e-06  -7.08955e-06  -3.66449e-05  8.73157e-05  0.000203323  0.00161439  1.73408  
-8.01565  5.62247  -3.76915  3.49134e-05  0.000622461  0.000416832  0.0114336  0.00757074  0.00528013  1.73228  
-7.93023  -10.3632  -4.04625  2.24744e-05  0.000329659  0.000433292  0.00503382  0.00652388  0.00880023  1.73229  
-8.06509  8.16951  -14.9081  0.00535572  -0.00590201  -9.75731e-05  0.00663609  0.000108641  1.67371e-05  0.928242  
8.01967  5.5447  -3.80655  5.19134e-05  -0.000989831  -0.000474381  0.0192987  0.00902904  0.00486409  3.46445  
-7.20732  5.85576  -2.49375  1.91767e-06  1.92497e-05  5.70187e-05  0.00021258  0.000580593  0.00184128  2.6  
-7.91893  8.00677  -14.9108  0.0528204  -0.0142617  -0.000930693  0.00657698  0.000253461  2.63732e-05  0.928063  
-8.77275  -10.887  -10.4775  0.00471977  0.00430242  -7.76707e-05  0.00400161  -7.15104e-05  6.72454e-06  1.85648  
-7.60491  5.85041  -3.02482  0.0240155  -0.000855104  -0.00222732  3.13813e-05  7.99236e-05  0.000210767  3.46426  
7.93025  -10.3632  -4.04625  2.2538e-05  -0.000330169  -0.000433838  0.00503381  0.00652387  0.00880024  1.73228  
7.75146  8.85343  -18.8145  0.129644  0.00453232  0.00226005  0.0241536  9.69158e-05  5.15422e-05  3.6782  
-7.76716  9.66817  -22.8443  0.00319558  0.000273063  -5.5469e-05  0.000143374  -4.65842e-06  1.1565e-06  1.73216  
7.80133  9.72617  -22.4129  0.00128411  0.000319696  -4.67573e-05  0.000353014  0.000211881  0.000256065  2.59973  
8.71583  -12.0451  -22.413  0.0013122  8.69837e-05  -2.10151e-06  0.000253852  0.000217489  0.000257604  2.16591  
