ply
format ascii 1.0
comment mixture 1.0
comment clop exported Gaussian mixture ply file
comment (c) Reinhold Preiner
element component 50
property float x
property float y
property float z
property float covxx
property float covxy
property float covxz
property float covyy
property float covyz
property float covzz
property float weight
end_header
-5.7698  0.78198  -0.8916  0.000182469  0.00211707  0.00809793  0.0339282  0.128392  0.495726  0.999998  
9.08856  11.059  -8.7244  0.000150517  0  0  0.000150517  0  0.000150517  1  
-5.89824  -1.2731  -0.5552  0.00187786  -0.00701824  0.00199313  0.354413  -0.0996384  0.0285808  0.86666  
-5.20841  9.76435  -12.8319  0.000150517  0  0  0.000150517  0  0.000150517  1  
9.91121  -2.10322  -15.2244  0.000171868  -0.00154256  0  0.0247055  0  7.52587e-05  1.13067  
0  0  0  5.81148e-07  0  0  5.81148e-07  0  5.81148e-07  1  
-4.84356  12.2407  -0.0752597  0.19098  0.257396  -0.20933  0.537336  -0.308702  0.239564  2.41432  
9.90106  -1.94095  -8.7244  0.000150517  0  0  0.000150517  0  0.000150517  1  
9.31555  7.42715  -11.225  0.000150517  0  0  0.000150517  0  0.000150517  1  
9.87906  -1.58869  -2.8702  0.00114634  -0.0175544  -0.0202098  0.281171  0.323641  0.440854  0.99598  
9.66306  1.86838  -11.225  0.000150517  0  0  0.000150517  0  0.000150517  1  
-5.52819  4.64775  -10.6594  0.000150517  0  0  0.000150517  0  0.000150517  1  
6.51588  12.7877  -3.23834  0.382923  -4.41244e-07  -0.341296  3.76293e-05  6.229e-07  0.38297  3.19932  
-5.7019  1.86838  -11.225  0.000150517  0  0  0.000150517  0  0.000150517  1  
-5.86131  -0.68224  -2.2848  0.0026094  0.0409332  0.00960876  0.655151  0.153727  0.0653918  0.995979  
-5.91797  -1.58869  -2.8702  0.00114837  0.0175707  0.0202274  0.281171  0.323641  0.440854  0.99598  
9.85935  -1.2731  -0.5552  0.0627351  -0.137201  -0.026265  0.606346  -0.0254085  0.035031  0.993965  
9.80906  -0.46888  -12.8319  0.000150517  0  0  0.000150517  0  0.000150517  1  
-5.59991  -2.71715  -0.145331  0.24066  -0.268668  0.0762531  0.57056  -0.16036  0.0459854  3.03067  
-5.90851  -2.35501  -15.2244  0.0045926  -0.0268319  9.44246e-09  0.187646  -3.20081e-08  5.01724e-05  1.79683  
9.01276  0  0  0.0714992  0.0215267  -0.0880104  3.70389  -0.576276  0.794363  0.699374  
-5.93998  -1.94095  -8.7244  0.000150517  0  0  0.000150517  0  0.000150517  1  
-4.51988  12.2553  -15.2244  0.614649  0.466291  5.19268e-07  0.557124  -2.13873e-08  3.12627e-05  4.29231  
-5.35448  7.42715  -11.225  0.000150517  0  0  0.000150517  0  0.000150517  1  
8.48098  12.2553  -15.2244  0.614707  -0.466316  -5.48704e-08  0.557122  1.19417e-07  3.12627e-05  4.29238  
-5.64483  2.78151  -1.7559  0.000146742  0.0015444  0.0101443  0.0247492  0.160778  1.06567  1.99999  
-4.01749  12.7878  -0.7756  0.161438  0.128113  -0.151754  0.124132  -0.13234  0.149154  0.883191  
9.54131  -2.77801  -0.12806  0.260972  0.289283  -0.0821061  0.523216  -0.147061  0.0421737  2.92883  
-5.79421  0.39153  -2.3851  0.00144029  0.0224435  0.0200709  0.359148  0.321155  0.52211  0.997979  
-5.18576  10.1267  -0.720607  0.00482719  0.0684775  -0.0134266  1.03901  -0.211121  1.28199  7.54828  
9.48925  4.64775  -10.6594  0.000150517  0  0  0.000150517  0  0.000150517  1  
-5.84798  -0.46888  -12.8319  0.000150517  0  0  0.000150517  0  0.000150517  1  
9.46875  4.97626  -1.63835  5.85031e-05  -0.00013277  -0.00296223  0.0021662  0.0472105  1.05336  1.99998  
9.33515  7.114  -1.28839  6.83291e-05  -0.000287834  0.00429382  0.00461314  -0.0677594  1.01548  1.99997  
9.60591  2.78151  -1.7559  0.000146732  -0.00154432  -0.0101437  0.0247492  0.160778  1.06567  1.99999  
-5.50766  4.97626  -1.63835  5.84417e-05  0.00013228  0.00295128  0.00216621  0.0472107  1.05336  1.99998  
-5.12749  11.059  -8.7244  0.000150517  0  0  0.000150517  0  0.000150517  1  
9.75535  0.39153  -2.3851  0.00143999  -0.0224411  -0.0200696  0.359148  0.321155  0.52211  0.997979  
-5.37406  7.114  -1.28839  6.80029e-05  0.000285239  -0.00425507  0.00461323  -0.0677601  1.01548  1.99997  
9.82245  -0.68224  -2.2848  0.00260659  -0.0409112  -0.00960084  0.655151  0.153727  0.0653919  0.995979  
9.90106  -1.94095  -3.8915  0.000196252  -0.00193737  -0.00561699  0.031097  0.0891621  0.260839  0.997986  
9.15266  10.0342  -0.990955  0.00379002  -0.0592521  0.0311679  0.945138  -0.498859  1.35781  6.83786  
9.16955  9.76435  -12.8319  0.000150517  0  0  0.000150517  0  0.000150517  1  
-2.59671  12.7878  -3.22315  0.366562  -2.1506e-07  0.321403  3.76293e-05  1.0406e-07  0.392654  3.23957  
9.09385  10.9745  0.3848  0.00972941  -0.08674  0.0102071  0.911588  -0.0665463  0.0185271  0.70121  
9.73096  0.78198  -0.8916  0.0647557  0.0561585  -0.130515  0.0811078  0.000174798  0.661299  0.999989  
8.06536  12.7655  -0.722372  0.197443  -0.134969  0.171953  0.123288  -0.134262  0.159082  0.955142  
9.03935  11.7881  0.240907  0.0546253  -0.151813  0.0700835  0.679987  -0.202816  0.0930467  0.227282  
8.79719  12.169  -0.0674814  0.210879  -0.287284  0.224955  0.687294  -0.343672  0.253153  2.33393  
-5.93998  -1.94095  -3.8915  0.000196367  0.0019383  0.00561967  0.0310971  0.0891622  0.260839  0.997986  
