ply
format ascii 1.0
comment mixture 1.0
comment clop exported Gaussian mixture ply file
comment (c) Reinhold Preiner
element component 30
property float x
property float y
property float z
property float covxx
property float covxy
property float covxz
property float covyy
property float covyz
property float covzz
property float weight
end_header
-17.375  11.3131  -12.125  6.92567e-05  0  0  6.92567e-05  0  6.92567e-05  1  
15.6526  11.4796  22.8759  6.27374  -0.0106503  1.35776  0.000563907  -0.00228782  0.553138  2.78198  
-17.375  15.5  -6.1764  6.92567e-05  0  0  6.92567e-05  0  6.92567e-05  1  
-12.5878  11.5278  -1.6667  5.85761  0.00960547  1.02234  0.000842985  0.00263797  0.222889  0.924877  
15.7855  -15.5  -12.125  6.92567e-05  0  0  6.92567e-05  0  6.92567e-05  1  
-17.375  15.5  -23.625  6.92567e-05  0  0  6.92567e-05  0  6.92567e-05  1  
-17.375  11.3131  -23.625  6.92567e-05  0  0  6.92567e-05  0  6.92567e-05  1  
-15.5878  11.5329  -1.6667  4.04635  -0.936931  1.23898  3.11047  0.00934923  1.73636  0.681558  
-15.5878  11.5329  22.5832  6.71728  -2.17908  -1.23015  3.21487  0.528742  0.290263  0.862654  
-17.375  -15.5  -23.625  6.92567e-05  0  0  6.92567e-05  0  6.92567e-05  1  
-17.375  11.4768  -6.125  6.92567e-05  0  0  6.92567e-05  0  6.92567e-05  1  
-17.375  -14.1869  -23.625  6.92567e-05  0  0  6.92567e-05  0  6.92567e-05  1  
-14.9645  -15.5  -23.625  6.92567e-05  0  0  6.92567e-05  0  6.92567e-05  1  
9.08222  11.4908  -1.68927  17.0953  -0.0289656  0.410669  0.00111144  -0.00069556  0.0161196  1.8548  
15.6526  11.4796  -1.87484  6.27375  -0.0106514  -1.30893  0.000564411  0.00220374  0.545239  2.78198  
-12.5878  11.5277  22.5832  12.7268  -0.0216672  -1.51803  0.000470143  0.00257859  0.27533  0.924868  
-17.375  -14.1869  -12.125  6.92567e-05  0  0  6.92567e-05  0  6.92567e-05  1  
17.375  -15.5  -23.625  6.92567e-05  0  0  6.92567e-05  0  6.92567e-05  1  
15.7855  -15.5  -23.625  6.92567e-05  0  0  6.92567e-05  0  6.92567e-05  1  
-17.375  15.5  23.625  6.92567e-05  0  0  6.92567e-05  0  6.92567e-05  1  
-3.3112  0  0  0.0703049  0  0  4.42099e-05  0  4.42099e-05  0.0774897  
-17.375  11.5358  23.625  6.92567e-05  0  0  6.92567e-05  0  6.92567e-05  1  
0  0  0  8.99438e-07  0  0  8.99438e-07  0  8.99438e-07  0.999999  
-17.375  11.516  -2.625  2.30856e-05  3.79132e-08  -4.54747e-13  0.00157883  4.73915e-09  2.30856e-05  1.01793  
0.308807  11.5058  22.4157  56.6335  -0.0963655  -0.0325331  0.000760051  5.36823e-05  0.0042969  9.24921  
-17.375  15.5  -3.0024  3.46284e-05  0  0  3.46284e-05  0  3.46284e-05  1  
-16.875  -15.5001  -6.125  0.500033  -4.76841e-07  -1.19211e-07  3.46284e-05  -6.82121e-13  3.46284e-05  1.99998  
-2.49606  11.5106  -1.64046  37.1034  -0.0632405  -0.389934  0.0014075  0.000665251  0.0108338  4.58811  
16.8727  -15.5  -6.125  0.376788  4.24896e-07  2.39708e-08  2.30856e-05  -4.59826e-13  2.30856e-05  2.34387  
-14.9645  -15.5  -12.125  6.92567e-05  0  0  6.92567e-05  0  6.92567e-05  1  
