ply
format ascii 1.0
comment mixture 1.0
comment clop exported Gaussian mixture ply file
comment (c) Reinhold Preiner
element component 10
property float x
property float y
property float z
property float covxx
property float covxy
property float covxz
property float covyy
property float covyz
property float covzz
property float weight
end_header
-0.56845  17.8587  19.2092  0.00634124  0.000903497  0.000705648  0.000137727  9.85943e-05  8.38929e-05  0.60596  
0  0  0  9.25174e-07  0  0  9.25174e-07  0  9.25174e-07  0.500005  
0  0  0  9.25174e-07  0  0  9.25174e-07  0  9.25174e-07  0.500001  
-0.42915  4.17742  -11.7455  7.34878e-07  0  0  0.00358461  -0.00165548  0.000780071  2.7819  
-3.96205  16.8216  18.0052  3.79736  2.23751  2.11607  1.76793  1.32121  1.44831  1.46925  
1.46015  17.8587  19.2092  0.00964029  -0.00102947  -0.00126498  0.00017049  0.000105797  0.00018971  0.728216  
-3.91312  13.9296  12.6405  10.7487  1.79975  -2.08658  2.11745  2.37322  6.1586  14.5514  
0.482377  3.35283  -10.9267  21.4824  -0.00066974  0.0467529  1.08911  -0.133051  0.458579  13.9906  
3.84058  15.4543  15.0699  10.9688  -4.73566  -4.49133  4.60279  6.0515  10.959  21.1303  
-0.53765  15.3674  12.0918  0.0213056  -0.0151064  0.00704489  0.0811691  -0.03748  0.0176578  0.807429  
