ply
format ascii 1.0
comment mixture 1.0
comment clop exported Gaussian mixture ply file
comment (c) Reinhold Preiner
element component 35
property float x
property float y
property float z
property float covxx
property float covxy
property float covxz
property float covyy
property float covyz
property float covzz
property float weight
end_header
0.898089  0.269644  -12.3641  0.416392  0.00443927  -0.000754184  0.203  0.00425092  0.434927  3.51823  
-5.28957  -5.0482  -7.57295  0.620608  -0.00221741  -0.0266521  0.617498  -0.0512468  0.00541741  5.29005  
4.93266  -5.02616  -7.57295  0.620586  0.00223187  0.0268734  0.61752  -0.0511301  0.00541723  5.29004  
4.64867  -4.48581  -1.05958  0.921277  0.00330909  0.0398886  0.916723  -0.0759065  0.00804059  7.93368  
2.94658  0.285746  -12.3687  0.393612  0.000955085  -0.00245201  0.195404  0.00349755  0.449864  3.48782  
-1.1504  0.266892  -12.3668  0.435927  -0.000742212  0.00286448  0.201616  0.0023483  0.437268  3.51203  
4.99506  0.270771  -12.3676  4.01042e-06  2.19116e-05  -2.41421e-07  0.0853702  -0.00122037  0.183582  0.384548  
-5.31304  5.84243  -7.57295  0.620591  0.00222805  -0.0268724  0.617527  0.0511325  0.00541747  5.29007  
-5.71006  -5.86021  -17.3431  0.34771  -0.00236396  -0.0148386  0.351888  -0.0291559  0.00306979  4.06455  
-5.00792  -4.50664  -1.05957  0.921307  -0.00329004  -0.0395524  0.916696  -0.0760732  0.00803909  7.93369  
5.2598  6.40619  -14.0863  0.431206  -0.00154045  0.018518  0.429042  0.0356072  0.00376337  4.33392  
5.11897  6.13539  -10.8296  0.498203  -0.00177056  0.021395  0.495704  0.0411392  0.00434765  4.6959  
5.07465  -5.29633  -10.8296  0.498185  0.00178755  0.0215733  0.495724  -0.0410472  0.00434981  4.6959  
5.40063  6.67699  -17.343  0.351185  -0.00125218  0.0150816  0.349428  0.028999  0.00306523  4.06845  
-5.59704  6.38278  -14.0863  0.431191  0.00155399  -0.0186718  0.429058  0.0355274  0.00376545  4.33392  
-5.4304  -5.31899  -10.8296  0.498204  -0.00177937  -0.021394  0.495708  -0.0411386  0.00434945  4.6959  
4.97815  5.86462  -7.57295  0.620607  -0.00222456  0.0266527  0.61751  0.0512477  0.00541562  5.29008  
-5.24735  0.275741  -12.3676  3.93491e-06  2.0343e-05  2.40464e-07  0.084466  0.000905794  0.182754  0.395694  
-3.19888  0.274238  -12.3692  0.376503  -0.00221826  0.0005702  0.205791  -0.00427061  0.430173  3.52442  
-5.73903  6.65295  -17.343  0.351171  0.00125488  -0.015206  0.34944  0.0289344  0.00306724  4.06843  
0  0  0  5.52284e-08  0  0  5.52284e-08  0  5.52284e-08  0.499995  
0  0  0  5.52284e-08  0  0  5.52284e-08  0  5.52284e-08  0.499999  
-5.14875  -4.77742  -4.31627  0.814548  -0.00290684  -0.0349905  0.810471  -0.067265  0.00711049  6.10985  
5.35864  -5.83668  -17.343  0.351172  0.00126623  0.015205  0.349433  -0.0289339  0.00306718  4.06841  
5.21665  -5.5665  -14.0863  0.431191  0.00155063  0.0186715  0.429058  -0.0355277  0.00376544  4.33392  
-5.24737  0.278078  -12.3681  0.205623  -0.000322869  -0.00071997  0.185001  0.00151529  0.407266  2.88523  
4.84439  5.58915  -4.31636  0.800793  0.0253751  0.0367456  0.821239  0.069385  0.00736088  6.08245  
4.75409  5.29427  -1.05946  0.847808  0.0852478  0.043742  0.965982  0.0840041  0.00887852  7.56331  
-5.57122  -5.58977  -14.0863  0.431209  -0.00153988  -0.0185191  0.429045  -0.0356072  0.00376539  4.33393  
-5.45504  6.11259  -10.8296  0.498186  0.00179262  -0.0215716  0.495713  0.0410454  0.00434949  4.69587  
4.79066  -4.75598  -4.31627  0.814515  0.00292733  0.0352797  0.810497  -0.0671136  0.00711048  6.10984  
-5.17106  5.57226  -4.31627  0.814521  0.00292537  -0.0352799  0.810504  0.0671136  0.00711043  6.10986  
-5.07187  5.30272  -1.05764  0.919011  -0.000531088  -0.0401086  0.916967  0.0760945  0.0080658  3.911  
-4.98744  5.30146  -1.06143  0.919974  0.00710605  -0.0395166  0.916499  0.0757219  0.00800901  4.02271  
4.99506  0.271701  -12.3695  0.202507  -0.00250012  9.35319e-05  0.186037  -0.00225668  0.407624  2.90836  
