ply
format ascii 1.0
comment mixture 1.0
comment clop exported Gaussian mixture ply file
comment (c) Reinhold Preiner
element component 13
property float x
property float y
property float z
property float covxx
property float covxy
property float covxz
property float covyy
property float covyz
property float covzz
property float weight
end_header
14.1723  0  0  27.7072  3.65437  7.64869  16.5922  -1.72642  9.53855  0.0187914  
13.7532  9.18345  5.30701  0.349616  0.000217651  -0.000145461  1.67052  -1.2606  1.67097  1.46831  
13.7557  9.17812  5.31287  0.348351  -0.000148815  9.56873e-05  1.67653  -1.2663  1.67622  2.0675  
14.1723  -11.0815  5.8251  0.0120723  0.014086  0.00298193  0.0272398  0.0121991  0.00792038  0.866029  
0  0  0  4.68955e-07  0  0  4.68955e-07  0  4.68955e-07  1.00003  
13.1641  10.1335  -6.33476  0.000407529  -1.17443e-12  9.09495e-13  0.000407529  2.44543e-08  0.0752551  1.04866  
-13.8044  -10.5668  5.31044  0.348891  -9.37221e-08  3.58152e-07  1.67403  1.26394  1.67405  3.53582  
-13.8044  -11.52  -21.2954  0.348791  4.02317e-07  7.63352e-07  0.34878  -5.00018e-07  2.54705e-05  1.49931  
13.6618  -10.2224  5.56665  0.327351  0.159129  0.158164  1.07471  0.781383  1.29429  2.91114  
13.7547  10.1336  -21.2954  0.348778  -1.60195e-07  1.14467e-06  0.348777  1.13429e-06  2.54705e-05  1.4993  
-13.8044  10.1336  -21.2954  0.348791  2.82889e-07  9.17344e-07  0.348776  2.68408e-07  2.54704e-05  1.49931  
-13.8044  9.18034  5.31044  0.348891  5.60372e-07  -4.85532e-07  1.67403  -1.26394  1.67405  3.53583  
13.3982  -11.0555  -21.2954  0.00809134  0.00573641  0  0.00501053  0  0.000611293  1.00777  
